<mxfile host="Electron" modified="2024-04-02T23:09:56.642Z" agent="Mozilla/5.0 (Windows NT 10.0; Win64; x64) AppleWebKit/537.36 (KHTML, like Gecko) draw.io/22.1.2 Chrome/114.0.5735.289 Electron/25.9.4 Safari/537.36" etag="N3SUl21Ux5WPpvhzTGTt" version="22.1.2" type="device">
  <diagram name="Page-1" id="8BtqknEd99RjEsPfAX1L">
    <mxGraphModel dx="3290" dy="1407" grid="1" gridSize="10" guides="1" tooltips="1" connect="1" arrows="1" fold="1" page="1" pageScale="1" pageWidth="850" pageHeight="1100" math="0" shadow="0">
      <root>
        <mxCell id="0" />
        <mxCell id="1" parent="0" />
        <mxCell id="ATo4ZZnYh2C9gaN8MMUS-18" value="Security Incident Handling&lt;br&gt;in the Delivery Team" style="swimlane;html=1;childLayout=stackLayout;resizeParent=1;resizeParentMax=0;startSize=40;whiteSpace=wrap;fillColor=#f5f5f5;fontColor=#333333;strokeColor=#666666;strokeWidth=2;" parent="1" vertex="1">
          <mxGeometry x="-140" y="21" width="1160" height="1983" as="geometry" />
        </mxCell>
        <mxCell id="ATo4ZZnYh2C9gaN8MMUS-52" value="Customer Relationship&lt;br&gt;Management" style="swimlane;html=1;startSize=40;fillColor=#dae8fc;strokeColor=#6c8ebf;" parent="ATo4ZZnYh2C9gaN8MMUS-18" vertex="1">
          <mxGeometry y="40" width="160" height="1943" as="geometry" />
        </mxCell>
        <mxCell id="ATo4ZZnYh2C9gaN8MMUS-142" value="" style="points=[[0.145,0.145,0],[0.5,0,0],[0.855,0.145,0],[1,0.5,0],[0.855,0.855,0],[0.5,1,0],[0.145,0.855,0],[0,0.5,0]];shape=mxgraph.bpmn.event;html=1;verticalLabelPosition=bottom;labelBackgroundColor=#ffffff;verticalAlign=top;align=center;perimeter=ellipsePerimeter;outlineConnect=0;aspect=fixed;outline=end;symbol=terminate2;" parent="ATo4ZZnYh2C9gaN8MMUS-52" vertex="1">
          <mxGeometry x="58" y="1796" width="34" height="34" as="geometry" />
        </mxCell>
        <mxCell id="ATo4ZZnYh2C9gaN8MMUS-19" value="Security Team&lt;br&gt;" style="swimlane;html=1;startSize=40;fillColor=#dae8fc;strokeColor=#6c8ebf;" parent="ATo4ZZnYh2C9gaN8MMUS-18" vertex="1">
          <mxGeometry x="160" y="40" width="160" height="1943" as="geometry" />
        </mxCell>
        <mxCell id="ATo4ZZnYh2C9gaN8MMUS-29" value="Creates&lt;br&gt;Sec-Issue Type&lt;br&gt;Ticket in the&lt;br&gt;DT Jira Board" style="points=[[0.25,0,0],[0.5,0,0],[0.75,0,0],[1,0.25,0],[1,0.5,0],[1,0.75,0],[0.75,1,0],[0.5,1,0],[0.25,1,0],[0,0.75,0],[0,0.5,0],[0,0.25,0]];shape=mxgraph.bpmn.task;whiteSpace=wrap;rectStyle=rounded;size=10;html=1;container=1;expand=0;collapsible=0;taskMarker=user;" parent="ATo4ZZnYh2C9gaN8MMUS-19" vertex="1">
          <mxGeometry x="20" y="60" width="120" height="70" as="geometry" />
        </mxCell>
        <mxCell id="ATo4ZZnYh2C9gaN8MMUS-164" value="" style="points=[[0.145,0.145,0],[0.5,0,0],[0.855,0.145,0],[1,0.5,0],[0.855,0.855,0],[0.5,1,0],[0.145,0.855,0],[0,0.5,0]];shape=mxgraph.bpmn.event;html=1;verticalLabelPosition=bottom;labelBackgroundColor=#ffffff;verticalAlign=top;align=center;perimeter=ellipsePerimeter;outlineConnect=0;aspect=fixed;outline=eventNonint;symbol=message;" parent="ATo4ZZnYh2C9gaN8MMUS-29" vertex="1">
          <mxGeometry x="110" y="22.5" width="25" height="25" as="geometry" />
        </mxCell>
        <mxCell id="ATo4ZZnYh2C9gaN8MMUS-166" value="Reviews&lt;br&gt;and provides&amp;nbsp;&lt;br&gt;additional information" style="points=[[0.25,0,0],[0.5,0,0],[0.75,0,0],[1,0.25,0],[1,0.5,0],[1,0.75,0],[0.75,1,0],[0.5,1,0],[0.25,1,0],[0,0.75,0],[0,0.5,0],[0,0.25,0]];shape=mxgraph.bpmn.task;whiteSpace=wrap;rectStyle=rounded;size=10;html=1;container=1;expand=0;collapsible=0;taskMarker=user;" parent="ATo4ZZnYh2C9gaN8MMUS-19" vertex="1">
          <mxGeometry x="20" y="160" width="120" height="70" as="geometry" />
        </mxCell>
        <mxCell id="ATo4ZZnYh2C9gaN8MMUS-20" value="Delivery Team&lt;br&gt;Leadership (STL, EM)" style="swimlane;html=1;startSize=40;fillColor=#e1d5e7;strokeColor=#9673a6;" parent="ATo4ZZnYh2C9gaN8MMUS-18" vertex="1">
          <mxGeometry x="320" y="40" width="200" height="1943" as="geometry" />
        </mxCell>
        <mxCell id="ATo4ZZnYh2C9gaN8MMUS-23" value="STL/EMs&lt;br&gt;Prioritize&lt;br&gt;Issues&lt;br&gt;(Force Ranked)" style="points=[[0.25,0,0],[0.5,0,0],[0.75,0,0],[1,0.25,0],[1,0.5,0],[1,0.75,0],[0.75,1,0],[0.5,1,0],[0.25,1,0],[0,0.75,0],[0,0.5,0],[0,0.25,0]];shape=mxgraph.bpmn.task;whiteSpace=wrap;rectStyle=rounded;size=10;html=1;container=1;expand=0;collapsible=0;taskMarker=user;" parent="ATo4ZZnYh2C9gaN8MMUS-20" vertex="1">
          <mxGeometry x="55" y="60" width="90" height="70" as="geometry" />
        </mxCell>
        <mxCell id="ATo4ZZnYh2C9gaN8MMUS-95" value="Approves or&lt;br&gt;puts on hold" style="points=[[0.25,0,0],[0.5,0,0],[0.75,0,0],[1,0.25,0],[1,0.5,0],[1,0.75,0],[0.75,1,0],[0.5,1,0],[0.25,1,0],[0,0.75,0],[0,0.5,0],[0,0.25,0]];shape=mxgraph.bpmn.task;whiteSpace=wrap;rectStyle=rounded;size=10;html=1;container=1;expand=0;collapsible=0;taskMarker=user;" parent="ATo4ZZnYh2C9gaN8MMUS-20" vertex="1">
          <mxGeometry x="55" y="360" width="90" height="70" as="geometry" />
        </mxCell>
        <mxCell id="ATo4ZZnYh2C9gaN8MMUS-97" value="Approved?" style="points=[[0.25,0.25,0],[0.5,0,0],[0.75,0.25,0],[1,0.5,0],[0.75,0.75,0],[0.5,1,0],[0.25,0.75,0],[0,0.5,0]];shape=mxgraph.bpmn.gateway2;html=1;verticalLabelPosition=middle;labelBackgroundColor=#ffffff;verticalAlign=middle;align=right;perimeter=rhombusPerimeter;outlineConnect=0;outline=none;symbol=none;gwType=exclusive;labelPosition=left;" parent="ATo4ZZnYh2C9gaN8MMUS-20" vertex="1">
          <mxGeometry x="75" y="480" width="50" height="50" as="geometry" />
        </mxCell>
        <mxCell id="ATo4ZZnYh2C9gaN8MMUS-98" style="edgeStyle=orthogonalEdgeStyle;rounded=0;orthogonalLoop=1;jettySize=auto;html=1;exitX=0.5;exitY=1;exitDx=0;exitDy=0;exitPerimeter=0;entryX=0.5;entryY=0;entryDx=0;entryDy=0;entryPerimeter=0;" parent="ATo4ZZnYh2C9gaN8MMUS-20" source="ATo4ZZnYh2C9gaN8MMUS-95" target="ATo4ZZnYh2C9gaN8MMUS-97" edge="1">
          <mxGeometry relative="1" as="geometry" />
        </mxCell>
        <mxCell id="ATo4ZZnYh2C9gaN8MMUS-101" value="put on hold" style="points=[[0.145,0.145,0],[0.5,0,0],[0.855,0.145,0],[1,0.5,0],[0.855,0.855,0],[0.5,1,0],[0.145,0.855,0],[0,0.5,0]];shape=mxgraph.bpmn.event;html=1;verticalLabelPosition=bottom;labelBackgroundColor=#ffffff;verticalAlign=top;align=center;perimeter=ellipsePerimeter;outlineConnect=0;aspect=fixed;outline=end;symbol=cancel;" parent="ATo4ZZnYh2C9gaN8MMUS-20" vertex="1">
          <mxGeometry x="80" y="594" width="40" height="40" as="geometry" />
        </mxCell>
        <mxCell id="ATo4ZZnYh2C9gaN8MMUS-103" value="no" style="edgeStyle=orthogonalEdgeStyle;rounded=0;orthogonalLoop=1;jettySize=auto;html=1;exitX=0.5;exitY=1;exitDx=0;exitDy=0;exitPerimeter=0;entryX=0.5;entryY=0;entryDx=0;entryDy=0;entryPerimeter=0;" parent="ATo4ZZnYh2C9gaN8MMUS-20" source="ATo4ZZnYh2C9gaN8MMUS-97" target="ATo4ZZnYh2C9gaN8MMUS-101" edge="1">
          <mxGeometry relative="1" as="geometry" />
        </mxCell>
        <mxCell id="ATo4ZZnYh2C9gaN8MMUS-21" value="Delivery Team&lt;br&gt;Engineer" style="swimlane;html=1;startSize=40;fillColor=#e1d5e7;strokeColor=#9673a6;" parent="ATo4ZZnYh2C9gaN8MMUS-18" vertex="1">
          <mxGeometry x="520" y="40" width="320" height="1943" as="geometry" />
        </mxCell>
        <mxCell id="ATo4ZZnYh2C9gaN8MMUS-25" value="Check if the issue is&amp;nbsp;&lt;br&gt;reproduceable" style="points=[[0.25,0,0],[0.5,0,0],[0.75,0,0],[1,0.25,0],[1,0.5,0],[1,0.75,0],[0.75,1,0],[0.5,1,0],[0.25,1,0],[0,0.75,0],[0,0.5,0],[0,0.25,0]];shape=mxgraph.bpmn.task;whiteSpace=wrap;rectStyle=rounded;size=10;html=1;container=1;expand=0;collapsible=0;taskMarker=user;" parent="ATo4ZZnYh2C9gaN8MMUS-21" vertex="1">
          <mxGeometry x="55" y="60" width="90" height="70" as="geometry" />
        </mxCell>
        <mxCell id="ATo4ZZnYh2C9gaN8MMUS-27" value="" style="points=[[0.25,0.25,0],[0.5,0,0],[0.75,0.25,0],[1,0.5,0],[0.75,0.75,0],[0.5,1,0],[0.25,0.75,0],[0,0.5,0]];shape=mxgraph.bpmn.gateway2;html=1;verticalLabelPosition=bottom;labelBackgroundColor=#ffffff;verticalAlign=top;align=center;perimeter=rhombusPerimeter;outlineConnect=0;outline=none;symbol=none;gwType=exclusive;" parent="ATo4ZZnYh2C9gaN8MMUS-21" vertex="1">
          <mxGeometry x="75" y="170" width="50" height="50" as="geometry" />
        </mxCell>
        <mxCell id="ATo4ZZnYh2C9gaN8MMUS-28" style="edgeStyle=orthogonalEdgeStyle;rounded=0;orthogonalLoop=1;jettySize=auto;html=1;exitX=0.5;exitY=1;exitDx=0;exitDy=0;exitPerimeter=0;entryX=0.5;entryY=0;entryDx=0;entryDy=0;entryPerimeter=0;" parent="ATo4ZZnYh2C9gaN8MMUS-21" source="ATo4ZZnYh2C9gaN8MMUS-25" target="ATo4ZZnYh2C9gaN8MMUS-27" edge="1">
          <mxGeometry relative="1" as="geometry" />
        </mxCell>
        <mxCell id="ATo4ZZnYh2C9gaN8MMUS-34" value="Analysis&lt;br&gt;if&amp;nbsp;Backports&lt;br&gt;are required" style="points=[[0.25,0,0],[0.5,0,0],[0.75,0,0],[1,0.25,0],[1,0.5,0],[1,0.75,0],[0.75,1,0],[0.5,1,0],[0.25,1,0],[0,0.75,0],[0,0.5,0],[0,0.25,0]];shape=mxgraph.bpmn.task;whiteSpace=wrap;rectStyle=rounded;size=10;html=1;container=1;expand=0;collapsible=0;taskMarker=user;" parent="ATo4ZZnYh2C9gaN8MMUS-21" vertex="1">
          <mxGeometry x="55" y="615" width="90" height="70" as="geometry" />
        </mxCell>
        <mxCell id="ATo4ZZnYh2C9gaN8MMUS-38" value="Analyses the&lt;br&gt;cause" style="points=[[0.25,0,0],[0.5,0,0],[0.75,0,0],[1,0.25,0],[1,0.5,0],[1,0.75,0],[0.75,1,0],[0.5,1,0],[0.25,1,0],[0,0.75,0],[0,0.5,0],[0,0.25,0]];shape=mxgraph.bpmn.task;whiteSpace=wrap;rectStyle=rounded;size=10;html=1;container=1;expand=0;collapsible=0;taskMarker=user;" parent="ATo4ZZnYh2C9gaN8MMUS-21" vertex="1">
          <mxGeometry x="55" y="250" width="90" height="70" as="geometry" />
        </mxCell>
        <mxCell id="ATo4ZZnYh2C9gaN8MMUS-39" style="edgeStyle=orthogonalEdgeStyle;rounded=0;orthogonalLoop=1;jettySize=auto;html=1;exitX=0.5;exitY=1;exitDx=0;exitDy=0;exitPerimeter=0;entryX=0.5;entryY=0;entryDx=0;entryDy=0;entryPerimeter=0;" parent="ATo4ZZnYh2C9gaN8MMUS-21" source="ATo4ZZnYh2C9gaN8MMUS-27" target="ATo4ZZnYh2C9gaN8MMUS-38" edge="1">
          <mxGeometry relative="1" as="geometry" />
        </mxCell>
        <mxCell id="ATo4ZZnYh2C9gaN8MMUS-40" value="Documents&lt;br&gt;the cause and steps to integrate the patch" style="points=[[0.25,0,0],[0.5,0,0],[0.75,0,0],[1,0.25,0],[1,0.5,0],[1,0.75,0],[0.75,1,0],[0.5,1,0],[0.25,1,0],[0,0.75,0],[0,0.5,0],[0,0.25,0]];shape=mxgraph.bpmn.task;whiteSpace=wrap;rectStyle=rounded;size=10;html=1;container=1;expand=0;collapsible=0;taskMarker=user;" parent="ATo4ZZnYh2C9gaN8MMUS-21" vertex="1">
          <mxGeometry x="42.5" y="895" width="115" height="70" as="geometry" />
        </mxCell>
        <mxCell id="ATo4ZZnYh2C9gaN8MMUS-75" style="edgeStyle=orthogonalEdgeStyle;rounded=0;orthogonalLoop=1;jettySize=auto;html=1;exitX=0.5;exitY=1;exitDx=0;exitDy=0;exitPerimeter=0;" parent="ATo4ZZnYh2C9gaN8MMUS-21" source="ATo4ZZnYh2C9gaN8MMUS-72" target="ATo4ZZnYh2C9gaN8MMUS-40" edge="1">
          <mxGeometry relative="1" as="geometry" />
        </mxCell>
        <mxCell id="ATo4ZZnYh2C9gaN8MMUS-72" value="Creates&lt;br&gt;Backports" style="points=[[0.25,0,0],[0.5,0,0],[0.75,0,0],[1,0.25,0],[1,0.5,0],[1,0.75,0],[0.75,1,0],[0.5,1,0],[0.25,1,0],[0,0.75,0],[0,0.5,0],[0,0.25,0]];shape=mxgraph.bpmn.task;whiteSpace=wrap;rectStyle=rounded;size=10;html=1;container=1;expand=0;collapsible=0;taskMarker=user;" parent="ATo4ZZnYh2C9gaN8MMUS-21" vertex="1">
          <mxGeometry x="55" y="775" width="90" height="70" as="geometry" />
        </mxCell>
        <mxCell id="ATo4ZZnYh2C9gaN8MMUS-105" value="no" style="edgeStyle=orthogonalEdgeStyle;rounded=0;orthogonalLoop=1;jettySize=auto;html=1;exitX=0.5;exitY=1;exitDx=0;exitDy=0;exitPerimeter=0;" parent="ATo4ZZnYh2C9gaN8MMUS-21" source="ATo4ZZnYh2C9gaN8MMUS-93" target="ATo4ZZnYh2C9gaN8MMUS-104" edge="1">
          <mxGeometry relative="1" as="geometry" />
        </mxCell>
        <mxCell id="ATo4ZZnYh2C9gaN8MMUS-93" value="Estimate&lt;br&gt;exeeds approved&lt;br&gt;treshhold?" style="points=[[0.25,0.25,0],[0.5,0,0],[0.75,0.25,0],[1,0.5,0],[0.75,0.75,0],[0.5,1,0],[0.25,0.75,0],[0,0.5,0]];shape=mxgraph.bpmn.gateway2;html=1;verticalLabelPosition=middle;labelBackgroundColor=#ffffff;verticalAlign=middle;align=left;perimeter=rhombusPerimeter;outlineConnect=0;outline=none;symbol=none;gwType=exclusive;labelPosition=right;" parent="ATo4ZZnYh2C9gaN8MMUS-21" vertex="1">
          <mxGeometry x="75" y="370" width="50" height="50" as="geometry" />
        </mxCell>
        <mxCell id="ATo4ZZnYh2C9gaN8MMUS-94" style="edgeStyle=orthogonalEdgeStyle;rounded=0;orthogonalLoop=1;jettySize=auto;html=1;exitX=0.5;exitY=1;exitDx=0;exitDy=0;exitPerimeter=0;" parent="ATo4ZZnYh2C9gaN8MMUS-21" source="ATo4ZZnYh2C9gaN8MMUS-38" target="ATo4ZZnYh2C9gaN8MMUS-93" edge="1">
          <mxGeometry relative="1" as="geometry" />
        </mxCell>
        <mxCell id="ATo4ZZnYh2C9gaN8MMUS-104" value="Fixes the issue" style="points=[[0.25,0,0],[0.5,0,0],[0.75,0,0],[1,0.25,0],[1,0.5,0],[1,0.75,0],[0.75,1,0],[0.5,1,0],[0.25,1,0],[0,0.75,0],[0,0.5,0],[0,0.25,0]];shape=mxgraph.bpmn.task;whiteSpace=wrap;rectStyle=rounded;size=10;html=1;container=1;expand=0;collapsible=0;taskMarker=user;" parent="ATo4ZZnYh2C9gaN8MMUS-21" vertex="1">
          <mxGeometry x="55" y="470" width="90" height="70" as="geometry" />
        </mxCell>
        <mxCell id="ATo4ZZnYh2C9gaN8MMUS-106" style="edgeStyle=orthogonalEdgeStyle;rounded=0;orthogonalLoop=1;jettySize=auto;html=1;exitX=0.5;exitY=1;exitDx=0;exitDy=0;exitPerimeter=0;entryX=0.5;entryY=0;entryDx=0;entryDy=0;entryPerimeter=0;" parent="ATo4ZZnYh2C9gaN8MMUS-21" source="ATo4ZZnYh2C9gaN8MMUS-104" target="ATo4ZZnYh2C9gaN8MMUS-34" edge="1">
          <mxGeometry relative="1" as="geometry" />
        </mxCell>
        <mxCell id="ATo4ZZnYh2C9gaN8MMUS-85" value="Informs customers by email" style="points=[[0.25,0,0],[0.5,0,0],[0.75,0,0],[1,0.25,0],[1,0.5,0],[1,0.75,0],[0.75,1,0],[0.5,1,0],[0.25,1,0],[0,0.75,0],[0,0.5,0],[0,0.25,0]];shape=mxgraph.bpmn.task;whiteSpace=wrap;rectStyle=rounded;size=10;html=1;container=1;expand=0;collapsible=0;taskMarker=user;" parent="ATo4ZZnYh2C9gaN8MMUS-21" vertex="1">
          <mxGeometry x="-490" y="1500" width="90" height="70" as="geometry" />
        </mxCell>
        <mxCell id="ATo4ZZnYh2C9gaN8MMUS-108" value="waits 7 days" style="points=[[0.145,0.145,0],[0.5,0,0],[0.855,0.145,0],[1,0.5,0],[0.855,0.855,0],[0.5,1,0],[0.145,0.855,0],[0,0.5,0]];shape=mxgraph.bpmn.event;html=1;verticalLabelPosition=middle;labelBackgroundColor=#ffffff;verticalAlign=middle;align=left;perimeter=ellipsePerimeter;outlineConnect=0;aspect=fixed;outline=standard;symbol=timer;labelPosition=right;labelBorderColor=none;" parent="ATo4ZZnYh2C9gaN8MMUS-21" vertex="1">
          <mxGeometry x="-460" y="1605" width="30" height="30" as="geometry" />
        </mxCell>
        <mxCell id="ATo4ZZnYh2C9gaN8MMUS-109" style="edgeStyle=orthogonalEdgeStyle;rounded=0;orthogonalLoop=1;jettySize=auto;html=1;exitX=0.5;exitY=1;exitDx=0;exitDy=0;exitPerimeter=0;entryX=0.5;entryY=0;entryDx=0;entryDy=0;entryPerimeter=0;" parent="ATo4ZZnYh2C9gaN8MMUS-21" source="ATo4ZZnYh2C9gaN8MMUS-85" target="ATo4ZZnYh2C9gaN8MMUS-108" edge="1">
          <mxGeometry relative="1" as="geometry" />
        </mxCell>
        <mxCell id="ATo4ZZnYh2C9gaN8MMUS-110" value="Publishes&lt;br&gt;the security&lt;br&gt;notes publically" style="points=[[0.25,0,0],[0.5,0,0],[0.75,0,0],[1,0.25,0],[1,0.5,0],[1,0.75,0],[0.75,1,0],[0.5,1,0],[0.25,1,0],[0,0.75,0],[0,0.5,0],[0,0.25,0]];shape=mxgraph.bpmn.task;whiteSpace=wrap;rectStyle=rounded;size=10;html=1;container=1;expand=0;collapsible=0;taskMarker=user;" parent="ATo4ZZnYh2C9gaN8MMUS-21" vertex="1">
          <mxGeometry x="-490" y="1685" width="90" height="70" as="geometry" />
        </mxCell>
        <mxCell id="ATo4ZZnYh2C9gaN8MMUS-111" style="edgeStyle=orthogonalEdgeStyle;rounded=0;orthogonalLoop=1;jettySize=auto;html=1;exitX=0.5;exitY=1;exitDx=0;exitDy=0;exitPerimeter=0;entryX=0.5;entryY=0;entryDx=0;entryDy=0;entryPerimeter=0;" parent="ATo4ZZnYh2C9gaN8MMUS-21" source="ATo4ZZnYh2C9gaN8MMUS-108" target="ATo4ZZnYh2C9gaN8MMUS-110" edge="1">
          <mxGeometry relative="1" as="geometry" />
        </mxCell>
        <mxCell id="ATo4ZZnYh2C9gaN8MMUS-81" value="Handover documents&lt;br&gt;to Customer Management" style="points=[[0.25,0,0],[0.5,0,0],[0.75,0,0],[1,0.25,0],[1,0.5,0],[1,0.75,0],[0.75,1,0],[0.5,1,0],[0.25,1,0],[0,0.75,0],[0,0.5,0],[0,0.25,0]];shape=mxgraph.bpmn.task;whiteSpace=wrap;rectStyle=rounded;size=10;html=1;container=1;expand=0;collapsible=0;taskMarker=manual;" parent="ATo4ZZnYh2C9gaN8MMUS-21" vertex="1">
          <mxGeometry x="40" y="1480" width="120" height="80" as="geometry" />
        </mxCell>
        <mxCell id="ATo4ZZnYh2C9gaN8MMUS-92" value="" style="points=[[0.145,0.145,0],[0.5,0,0],[0.855,0.145,0],[1,0.5,0],[0.855,0.855,0],[0.5,1,0],[0.145,0.855,0],[0,0.5,0]];shape=mxgraph.bpmn.event;html=1;verticalLabelPosition=bottom;labelBackgroundColor=#ffffff;verticalAlign=top;align=center;perimeter=ellipsePerimeter;outlineConnect=0;aspect=fixed;outline=eventNonint;symbol=message;" parent="ATo4ZZnYh2C9gaN8MMUS-21" vertex="1">
          <mxGeometry x="30" y="1520" width="30" height="30" as="geometry" />
        </mxCell>
        <mxCell id="ATo4ZZnYh2C9gaN8MMUS-86" style="edgeStyle=orthogonalEdgeStyle;rounded=0;orthogonalLoop=1;jettySize=auto;html=1;exitX=0;exitY=0.5;exitDx=0;exitDy=0;exitPerimeter=0;entryX=1;entryY=0.5;entryDx=0;entryDy=0;entryPerimeter=0;" parent="ATo4ZZnYh2C9gaN8MMUS-21" source="ATo4ZZnYh2C9gaN8MMUS-92" target="ATo4ZZnYh2C9gaN8MMUS-85" edge="1">
          <mxGeometry relative="1" as="geometry" />
        </mxCell>
        <mxCell id="ATo4ZZnYh2C9gaN8MMUS-113" value="Tests&lt;br&gt;the patch&lt;br&gt;and integration&lt;br&gt;instructions" style="points=[[0.25,0,0],[0.5,0,0],[0.75,0,0],[1,0.25,0],[1,0.5,0],[1,0.75,0],[0.75,1,0],[0.5,1,0],[0.25,1,0],[0,0.75,0],[0,0.5,0],[0,0.25,0]];shape=mxgraph.bpmn.task;whiteSpace=wrap;rectStyle=rounded;size=10;html=1;container=1;expand=0;collapsible=0;taskMarker=user;" parent="ATo4ZZnYh2C9gaN8MMUS-21" vertex="1">
          <mxGeometry x="55" y="1090" width="90" height="70" as="geometry" />
        </mxCell>
        <mxCell id="ATo4ZZnYh2C9gaN8MMUS-114" value="Test failed?" style="points=[[0.25,0.25,0],[0.5,0,0],[0.75,0.25,0],[1,0.5,0],[0.75,0.75,0],[0.5,1,0],[0.25,0.75,0],[0,0.5,0]];shape=mxgraph.bpmn.gateway2;html=1;verticalLabelPosition=middle;labelBackgroundColor=#ffffff;verticalAlign=middle;align=right;perimeter=rhombusPerimeter;outlineConnect=0;outline=none;symbol=none;gwType=exclusive;labelPosition=left;" parent="ATo4ZZnYh2C9gaN8MMUS-21" vertex="1">
          <mxGeometry x="75" y="1190" width="50" height="50" as="geometry" />
        </mxCell>
        <mxCell id="ATo4ZZnYh2C9gaN8MMUS-115" style="edgeStyle=orthogonalEdgeStyle;rounded=0;orthogonalLoop=1;jettySize=auto;html=1;exitX=0.5;exitY=1;exitDx=0;exitDy=0;exitPerimeter=0;entryX=0.5;entryY=0;entryDx=0;entryDy=0;entryPerimeter=0;" parent="ATo4ZZnYh2C9gaN8MMUS-21" source="ATo4ZZnYh2C9gaN8MMUS-113" target="ATo4ZZnYh2C9gaN8MMUS-114" edge="1">
          <mxGeometry relative="1" as="geometry" />
        </mxCell>
        <mxCell id="ATo4ZZnYh2C9gaN8MMUS-118" style="edgeStyle=orthogonalEdgeStyle;rounded=0;orthogonalLoop=1;jettySize=auto;html=1;exitX=0;exitY=0.5;exitDx=0;exitDy=0;exitPerimeter=0;" parent="ATo4ZZnYh2C9gaN8MMUS-21" source="ATo4ZZnYh2C9gaN8MMUS-117" target="ATo4ZZnYh2C9gaN8MMUS-113" edge="1">
          <mxGeometry relative="1" as="geometry" />
        </mxCell>
        <mxCell id="ATo4ZZnYh2C9gaN8MMUS-117" value="Refinement" style="points=[[0.25,0,0],[0.5,0,0],[0.75,0,0],[1,0.25,0],[1,0.5,0],[1,0.75,0],[0.75,1,0],[0.5,1,0],[0.25,1,0],[0,0.75,0],[0,0.5,0],[0,0.25,0]];shape=mxgraph.bpmn.task;whiteSpace=wrap;rectStyle=rounded;size=10;html=1;container=1;expand=0;collapsible=0;taskMarker=user;" parent="ATo4ZZnYh2C9gaN8MMUS-21" vertex="1">
          <mxGeometry x="195" y="1090" width="90" height="70" as="geometry" />
        </mxCell>
        <mxCell id="ATo4ZZnYh2C9gaN8MMUS-116" value="yes" style="edgeStyle=orthogonalEdgeStyle;rounded=0;orthogonalLoop=1;jettySize=auto;html=1;exitX=1;exitY=0.5;exitDx=0;exitDy=0;exitPerimeter=0;entryX=0.5;entryY=1;entryDx=0;entryDy=0;entryPerimeter=0;" parent="ATo4ZZnYh2C9gaN8MMUS-21" source="ATo4ZZnYh2C9gaN8MMUS-114" target="ATo4ZZnYh2C9gaN8MMUS-117" edge="1">
          <mxGeometry x="-0.4" relative="1" as="geometry">
            <mxPoint x="-45" y="1200" as="targetPoint" />
            <mxPoint as="offset" />
          </mxGeometry>
        </mxCell>
        <mxCell id="ATo4ZZnYh2C9gaN8MMUS-119" value="Prepares and triggers release&lt;br&gt;process" style="points=[[0.25,0,0],[0.5,0,0],[0.75,0,0],[1,0.25,0],[1,0.5,0],[1,0.75,0],[0.75,1,0],[0.5,1,0],[0.25,1,0],[0,0.75,0],[0,0.5,0],[0,0.25,0]];shape=mxgraph.bpmn.task;whiteSpace=wrap;rectStyle=rounded;size=10;html=1;container=1;expand=0;collapsible=0;taskMarker=user;" parent="ATo4ZZnYh2C9gaN8MMUS-21" vertex="1">
          <mxGeometry x="55" y="1300" width="90" height="70" as="geometry" />
        </mxCell>
        <mxCell id="ATo4ZZnYh2C9gaN8MMUS-120" value="no" style="edgeStyle=orthogonalEdgeStyle;rounded=0;orthogonalLoop=1;jettySize=auto;html=1;exitX=0.5;exitY=1;exitDx=0;exitDy=0;exitPerimeter=0;" parent="ATo4ZZnYh2C9gaN8MMUS-21" source="ATo4ZZnYh2C9gaN8MMUS-114" target="ATo4ZZnYh2C9gaN8MMUS-119" edge="1">
          <mxGeometry relative="1" as="geometry" />
        </mxCell>
        <mxCell id="ATo4ZZnYh2C9gaN8MMUS-122" value="Waiting for release&lt;br&gt;to be finished" style="points=[[0.145,0.145,0],[0.5,0,0],[0.855,0.145,0],[1,0.5,0],[0.855,0.855,0],[0.5,1,0],[0.145,0.855,0],[0,0.5,0]];shape=mxgraph.bpmn.event;html=1;verticalLabelPosition=middle;labelBackgroundColor=#ffffff;verticalAlign=middle;align=left;perimeter=ellipsePerimeter;outlineConnect=0;aspect=fixed;outline=standard;symbol=timer;labelPosition=right;" parent="ATo4ZZnYh2C9gaN8MMUS-21" vertex="1">
          <mxGeometry x="80" y="1400" width="40" height="40" as="geometry" />
        </mxCell>
        <mxCell id="ATo4ZZnYh2C9gaN8MMUS-123" style="edgeStyle=orthogonalEdgeStyle;rounded=0;orthogonalLoop=1;jettySize=auto;html=1;exitX=0.5;exitY=1;exitDx=0;exitDy=0;exitPerimeter=0;entryX=0.5;entryY=0;entryDx=0;entryDy=0;entryPerimeter=0;" parent="ATo4ZZnYh2C9gaN8MMUS-21" source="ATo4ZZnYh2C9gaN8MMUS-119" target="ATo4ZZnYh2C9gaN8MMUS-122" edge="1">
          <mxGeometry relative="1" as="geometry" />
        </mxCell>
        <mxCell id="ATo4ZZnYh2C9gaN8MMUS-124" style="edgeStyle=orthogonalEdgeStyle;rounded=0;orthogonalLoop=1;jettySize=auto;html=1;exitX=0.5;exitY=1;exitDx=0;exitDy=0;exitPerimeter=0;entryX=0.5;entryY=0;entryDx=0;entryDy=0;entryPerimeter=0;" parent="ATo4ZZnYh2C9gaN8MMUS-21" source="ATo4ZZnYh2C9gaN8MMUS-122" target="ATo4ZZnYh2C9gaN8MMUS-81" edge="1">
          <mxGeometry relative="1" as="geometry" />
        </mxCell>
        <mxCell id="ATo4ZZnYh2C9gaN8MMUS-22" value="Delivery Team&lt;br&gt;Tech Lead" style="swimlane;html=1;startSize=40;fillColor=#e1d5e7;strokeColor=#9673a6;" parent="ATo4ZZnYh2C9gaN8MMUS-18" vertex="1">
          <mxGeometry x="840" y="40" width="160" height="1943" as="geometry" />
        </mxCell>
        <mxCell id="ATo4ZZnYh2C9gaN8MMUS-35" value="Reviews&amp;nbsp;&lt;br&gt;and approves&lt;br&gt;Backports" style="points=[[0.25,0,0],[0.5,0,0],[0.75,0,0],[1,0.25,0],[1,0.5,0],[1,0.75,0],[0.75,1,0],[0.5,1,0],[0.25,1,0],[0,0.75,0],[0,0.5,0],[0,0.25,0]];shape=mxgraph.bpmn.task;whiteSpace=wrap;rectStyle=rounded;size=10;html=1;container=1;expand=0;collapsible=0;taskMarker=user;" parent="ATo4ZZnYh2C9gaN8MMUS-22" vertex="1">
          <mxGeometry x="35" y="615" width="90" height="70" as="geometry" />
        </mxCell>
        <mxCell id="ATo4ZZnYh2C9gaN8MMUS-43" value="" style="points=[[0.25,0.25,0],[0.5,0,0],[0.75,0.25,0],[1,0.5,0],[0.75,0.75,0],[0.5,1,0],[0.25,0.75,0],[0,0.5,0]];shape=mxgraph.bpmn.gateway2;html=1;verticalLabelPosition=bottom;labelBackgroundColor=#ffffff;verticalAlign=top;align=center;perimeter=rhombusPerimeter;outlineConnect=0;outline=none;symbol=none;gwType=exclusive;" parent="ATo4ZZnYh2C9gaN8MMUS-22" vertex="1">
          <mxGeometry x="55" y="715" width="50" height="50" as="geometry" />
        </mxCell>
        <mxCell id="ATo4ZZnYh2C9gaN8MMUS-44" style="edgeStyle=orthogonalEdgeStyle;rounded=0;orthogonalLoop=1;jettySize=auto;html=1;exitX=0.5;exitY=1;exitDx=0;exitDy=0;exitPerimeter=0;entryX=0.5;entryY=0;entryDx=0;entryDy=0;entryPerimeter=0;" parent="ATo4ZZnYh2C9gaN8MMUS-22" source="ATo4ZZnYh2C9gaN8MMUS-35" target="ATo4ZZnYh2C9gaN8MMUS-43" edge="1">
          <mxGeometry relative="1" as="geometry" />
        </mxCell>
        <mxCell id="ATo4ZZnYh2C9gaN8MMUS-79" value="Tech Writer" style="swimlane;html=1;startSize=40;fillColor=#e1d5e7;strokeColor=#9673a6;" parent="ATo4ZZnYh2C9gaN8MMUS-18" vertex="1">
          <mxGeometry x="1000" y="40" width="160" height="1943" as="geometry" />
        </mxCell>
        <mxCell id="ATo4ZZnYh2C9gaN8MMUS-78" value="" style="points=[[0.25,0.25,0],[0.5,0,0],[0.75,0.25,0],[1,0.5,0],[0.75,0.75,0],[0.5,1,0],[0.25,0.75,0],[0,0.5,0]];shape=mxgraph.bpmn.gateway2;html=1;verticalLabelPosition=bottom;labelBackgroundColor=#ffffff;verticalAlign=top;align=center;perimeter=rhombusPerimeter;outlineConnect=0;outline=none;symbol=none;gwType=exclusive;" parent="ATo4ZZnYh2C9gaN8MMUS-79" vertex="1">
          <mxGeometry x="55" y="995" width="50" height="50" as="geometry" />
        </mxCell>
        <mxCell id="ATo4ZZnYh2C9gaN8MMUS-77" value="Reviews&amp;nbsp;&lt;br&gt;and approves&lt;br&gt;documents" style="points=[[0.25,0,0],[0.5,0,0],[0.75,0,0],[1,0.25,0],[1,0.5,0],[1,0.75,0],[0.75,1,0],[0.5,1,0],[0.25,1,0],[0,0.75,0],[0,0.5,0],[0,0.25,0]];shape=mxgraph.bpmn.task;whiteSpace=wrap;rectStyle=rounded;size=10;html=1;container=1;expand=0;collapsible=0;taskMarker=user;" parent="ATo4ZZnYh2C9gaN8MMUS-79" vertex="1">
          <mxGeometry x="35" y="895" width="90" height="70" as="geometry" />
        </mxCell>
        <mxCell id="ATo4ZZnYh2C9gaN8MMUS-80" style="edgeStyle=orthogonalEdgeStyle;rounded=0;orthogonalLoop=1;jettySize=auto;html=1;exitX=0.5;exitY=1;exitDx=0;exitDy=0;exitPerimeter=0;entryX=0.5;entryY=0;entryDx=0;entryDy=0;entryPerimeter=0;" parent="ATo4ZZnYh2C9gaN8MMUS-79" source="ATo4ZZnYh2C9gaN8MMUS-77" target="ATo4ZZnYh2C9gaN8MMUS-78" edge="1">
          <mxGeometry relative="1" as="geometry" />
        </mxCell>
        <mxCell id="ATo4ZZnYh2C9gaN8MMUS-32" style="edgeStyle=orthogonalEdgeStyle;rounded=0;orthogonalLoop=1;jettySize=auto;html=1;exitX=1;exitY=0.5;exitDx=0;exitDy=0;exitPerimeter=0;" parent="ATo4ZZnYh2C9gaN8MMUS-18" source="ATo4ZZnYh2C9gaN8MMUS-164" target="ATo4ZZnYh2C9gaN8MMUS-23" edge="1">
          <mxGeometry relative="1" as="geometry" />
        </mxCell>
        <mxCell id="ATo4ZZnYh2C9gaN8MMUS-36" style="edgeStyle=orthogonalEdgeStyle;rounded=0;orthogonalLoop=1;jettySize=auto;html=1;exitX=1;exitY=0.5;exitDx=0;exitDy=0;exitPerimeter=0;" parent="ATo4ZZnYh2C9gaN8MMUS-18" source="ATo4ZZnYh2C9gaN8MMUS-34" target="ATo4ZZnYh2C9gaN8MMUS-35" edge="1">
          <mxGeometry relative="1" as="geometry" />
        </mxCell>
        <mxCell id="ATo4ZZnYh2C9gaN8MMUS-73" value="not approved" style="edgeStyle=orthogonalEdgeStyle;rounded=0;orthogonalLoop=1;jettySize=auto;html=1;exitX=0;exitY=0.5;exitDx=0;exitDy=0;exitPerimeter=0;entryX=0.5;entryY=1;entryDx=0;entryDy=0;entryPerimeter=0;" parent="ATo4ZZnYh2C9gaN8MMUS-18" source="ATo4ZZnYh2C9gaN8MMUS-43" target="ATo4ZZnYh2C9gaN8MMUS-34" edge="1">
          <mxGeometry relative="1" as="geometry" />
        </mxCell>
        <mxCell id="ATo4ZZnYh2C9gaN8MMUS-74" value="approved" style="edgeStyle=orthogonalEdgeStyle;rounded=0;orthogonalLoop=1;jettySize=auto;html=1;exitX=0.5;exitY=1;exitDx=0;exitDy=0;exitPerimeter=0;entryX=1;entryY=0.5;entryDx=0;entryDy=0;entryPerimeter=0;" parent="ATo4ZZnYh2C9gaN8MMUS-18" source="ATo4ZZnYh2C9gaN8MMUS-43" target="ATo4ZZnYh2C9gaN8MMUS-72" edge="1">
          <mxGeometry relative="1" as="geometry" />
        </mxCell>
        <mxCell id="ATo4ZZnYh2C9gaN8MMUS-82" style="edgeStyle=orthogonalEdgeStyle;rounded=0;orthogonalLoop=1;jettySize=auto;html=1;exitX=1;exitY=0.5;exitDx=0;exitDy=0;exitPerimeter=0;" parent="ATo4ZZnYh2C9gaN8MMUS-18" source="ATo4ZZnYh2C9gaN8MMUS-40" target="ATo4ZZnYh2C9gaN8MMUS-77" edge="1">
          <mxGeometry relative="1" as="geometry" />
        </mxCell>
        <mxCell id="ATo4ZZnYh2C9gaN8MMUS-83" value="not approved" style="edgeStyle=orthogonalEdgeStyle;rounded=0;orthogonalLoop=1;jettySize=auto;html=1;exitX=0;exitY=0.5;exitDx=0;exitDy=0;exitPerimeter=0;entryX=0.5;entryY=1;entryDx=0;entryDy=0;entryPerimeter=0;" parent="ATo4ZZnYh2C9gaN8MMUS-18" source="ATo4ZZnYh2C9gaN8MMUS-78" target="ATo4ZZnYh2C9gaN8MMUS-40" edge="1">
          <mxGeometry relative="1" as="geometry" />
        </mxCell>
        <mxCell id="ATo4ZZnYh2C9gaN8MMUS-84" value="approved" style="edgeStyle=orthogonalEdgeStyle;rounded=0;orthogonalLoop=1;jettySize=auto;html=1;exitX=0.5;exitY=1;exitDx=0;exitDy=0;exitPerimeter=0;entryX=0.5;entryY=0;entryDx=0;entryDy=0;entryPerimeter=0;" parent="ATo4ZZnYh2C9gaN8MMUS-18" source="ATo4ZZnYh2C9gaN8MMUS-78" target="ATo4ZZnYh2C9gaN8MMUS-113" edge="1">
          <mxGeometry relative="1" as="geometry" />
        </mxCell>
        <mxCell id="ATo4ZZnYh2C9gaN8MMUS-88" style="edgeStyle=orthogonalEdgeStyle;rounded=0;orthogonalLoop=1;jettySize=auto;html=1;exitX=1;exitY=0.5;exitDx=0;exitDy=0;exitPerimeter=0;entryX=0;entryY=0.5;entryDx=0;entryDy=0;entryPerimeter=0;" parent="ATo4ZZnYh2C9gaN8MMUS-18" source="ATo4ZZnYh2C9gaN8MMUS-23" target="ATo4ZZnYh2C9gaN8MMUS-25" edge="1">
          <mxGeometry relative="1" as="geometry" />
        </mxCell>
        <mxCell id="ATo4ZZnYh2C9gaN8MMUS-96" value="yes" style="edgeStyle=orthogonalEdgeStyle;rounded=0;orthogonalLoop=1;jettySize=auto;html=1;exitX=0;exitY=0.5;exitDx=0;exitDy=0;exitPerimeter=0;entryX=1;entryY=0.5;entryDx=0;entryDy=0;entryPerimeter=0;" parent="ATo4ZZnYh2C9gaN8MMUS-18" source="ATo4ZZnYh2C9gaN8MMUS-93" target="ATo4ZZnYh2C9gaN8MMUS-95" edge="1">
          <mxGeometry relative="1" as="geometry" />
        </mxCell>
        <mxCell id="ATo4ZZnYh2C9gaN8MMUS-143" style="edgeStyle=orthogonalEdgeStyle;rounded=0;orthogonalLoop=1;jettySize=auto;html=1;exitX=0.5;exitY=1;exitDx=0;exitDy=0;exitPerimeter=0;entryX=0.5;entryY=0;entryDx=0;entryDy=0;entryPerimeter=0;" parent="ATo4ZZnYh2C9gaN8MMUS-18" source="ATo4ZZnYh2C9gaN8MMUS-110" target="ATo4ZZnYh2C9gaN8MMUS-142" edge="1">
          <mxGeometry relative="1" as="geometry" />
        </mxCell>
        <mxCell id="ATo4ZZnYh2C9gaN8MMUS-144" value="yes" style="edgeStyle=orthogonalEdgeStyle;rounded=0;orthogonalLoop=1;jettySize=auto;html=1;exitX=1;exitY=0.5;exitDx=0;exitDy=0;exitPerimeter=0;" parent="ATo4ZZnYh2C9gaN8MMUS-18" source="ATo4ZZnYh2C9gaN8MMUS-97" target="ATo4ZZnYh2C9gaN8MMUS-104" edge="1">
          <mxGeometry relative="1" as="geometry" />
        </mxCell>
        <mxCell id="ATo4ZZnYh2C9gaN8MMUS-165" value="not reproduceable" style="edgeStyle=orthogonalEdgeStyle;rounded=0;orthogonalLoop=1;jettySize=auto;html=1;exitX=0;exitY=0.5;exitDx=0;exitDy=0;exitPerimeter=0;" parent="ATo4ZZnYh2C9gaN8MMUS-18" source="ATo4ZZnYh2C9gaN8MMUS-27" target="ATo4ZZnYh2C9gaN8MMUS-166" edge="1">
          <mxGeometry relative="1" as="geometry">
            <mxPoint x="370" y="234.6521739130435" as="targetPoint" />
          </mxGeometry>
        </mxCell>
        <mxCell id="ATo4ZZnYh2C9gaN8MMUS-189" style="edgeStyle=orthogonalEdgeStyle;rounded=0;orthogonalLoop=1;jettySize=auto;html=1;exitX=0.5;exitY=1;exitDx=0;exitDy=0;exitPerimeter=0;entryX=0.5;entryY=0;entryDx=0;entryDy=0;entryPerimeter=0;" parent="1" source="ATo4ZZnYh2C9gaN8MMUS-125" target="ATo4ZZnYh2C9gaN8MMUS-187" edge="1">
          <mxGeometry relative="1" as="geometry">
            <mxPoint x="-311" y="329.55999999999995" as="targetPoint" />
          </mxGeometry>
        </mxCell>
        <mxCell id="ATo4ZZnYh2C9gaN8MMUS-125" value="Maintainer&lt;br&gt;Reviews Issue" style="points=[[0.25,0,0],[0.5,0,0],[0.75,0,0],[1,0.25,0],[1,0.5,0],[1,0.75,0],[0.75,1,0],[0.5,1,0],[0.25,1,0],[0,0.75,0],[0,0.5,0],[0,0.25,0]];shape=mxgraph.bpmn.task;whiteSpace=wrap;rectStyle=rounded;size=10;html=1;container=1;expand=0;collapsible=0;taskMarker=user;" parent="1" vertex="1">
          <mxGeometry x="-456" y="200" width="90" height="70" as="geometry" />
        </mxCell>
        <mxCell id="ATo4ZZnYh2C9gaN8MMUS-127" value="Maintainer&lt;br&gt;reviews Fix" style="points=[[0.25,0,0],[0.5,0,0],[0.75,0,0],[1,0.25,0],[1,0.5,0],[1,0.75,0],[0.75,1,0],[0.5,1,0],[0.25,1,0],[0,0.75,0],[0,0.5,0],[0,0.25,0]];shape=mxgraph.bpmn.task;whiteSpace=wrap;rectStyle=rounded;size=10;html=1;container=1;expand=0;collapsible=0;taskMarker=user;" parent="1" vertex="1">
          <mxGeometry x="-456" y="510" width="90" height="60" as="geometry" />
        </mxCell>
        <mxCell id="ATo4ZZnYh2C9gaN8MMUS-130" value="Approved?" style="points=[[0.25,0.25,0],[0.5,0,0],[0.75,0.25,0],[1,0.5,0],[0.75,0.75,0],[0.5,1,0],[0.25,0.75,0],[0,0.5,0]];shape=mxgraph.bpmn.gateway2;html=1;verticalLabelPosition=middle;labelBackgroundColor=#ffffff;verticalAlign=middle;align=right;perimeter=rhombusPerimeter;outlineConnect=0;outline=none;symbol=none;gwType=exclusive;labelPosition=left;" parent="1" vertex="1">
          <mxGeometry x="-436" y="611.41" width="50" height="50" as="geometry" />
        </mxCell>
        <mxCell id="ATo4ZZnYh2C9gaN8MMUS-131" style="edgeStyle=orthogonalEdgeStyle;rounded=0;orthogonalLoop=1;jettySize=auto;html=1;exitX=0.5;exitY=1;exitDx=0;exitDy=0;exitPerimeter=0;entryX=0.5;entryY=0;entryDx=0;entryDy=0;entryPerimeter=0;" parent="1" source="ATo4ZZnYh2C9gaN8MMUS-127" target="ATo4ZZnYh2C9gaN8MMUS-130" edge="1">
          <mxGeometry relative="1" as="geometry" />
        </mxCell>
        <mxCell id="ATo4ZZnYh2C9gaN8MMUS-132" value="no" style="edgeStyle=orthogonalEdgeStyle;rounded=0;orthogonalLoop=1;jettySize=auto;html=1;exitX=1;exitY=0.5;exitDx=0;exitDy=0;exitPerimeter=0;entryX=0.5;entryY=1;entryDx=0;entryDy=0;entryPerimeter=0;" parent="1" source="ATo4ZZnYh2C9gaN8MMUS-130" target="ATo4ZZnYh2C9gaN8MMUS-185" edge="1">
          <mxGeometry relative="1" as="geometry">
            <mxPoint x="-194" y="651.59" as="targetPoint" />
          </mxGeometry>
        </mxCell>
        <mxCell id="ATo4ZZnYh2C9gaN8MMUS-133" value="Merges&lt;br&gt;and releases&lt;br&gt;fix" style="points=[[0.25,0,0],[0.5,0,0],[0.75,0,0],[1,0.25,0],[1,0.5,0],[1,0.75,0],[0.75,1,0],[0.5,1,0],[0.25,1,0],[0,0.75,0],[0,0.5,0],[0,0.25,0]];shape=mxgraph.bpmn.task;whiteSpace=wrap;rectStyle=rounded;size=10;html=1;container=1;expand=0;collapsible=0;taskMarker=user;" parent="1" vertex="1">
          <mxGeometry x="-456" y="830" width="90" height="70" as="geometry" />
        </mxCell>
        <mxCell id="ATo4ZZnYh2C9gaN8MMUS-135" value="Prepares release notes" style="points=[[0.25,0,0],[0.5,0,0],[0.75,0,0],[1,0.25,0],[1,0.5,0],[1,0.75,0],[0.75,1,0],[0.5,1,0],[0.25,1,0],[0,0.75,0],[0,0.5,0],[0,0.25,0]];shape=mxgraph.bpmn.task;whiteSpace=wrap;rectStyle=rounded;size=10;html=1;container=1;expand=0;collapsible=0;taskMarker=user;" parent="1" vertex="1">
          <mxGeometry x="-456" y="713" width="90" height="70" as="geometry" />
        </mxCell>
        <mxCell id="ATo4ZZnYh2C9gaN8MMUS-136" value="yes" style="edgeStyle=orthogonalEdgeStyle;rounded=0;orthogonalLoop=1;jettySize=auto;html=1;exitX=0.5;exitY=1;exitDx=0;exitDy=0;exitPerimeter=0;entryX=0.5;entryY=0;entryDx=0;entryDy=0;entryPerimeter=0;" parent="1" source="ATo4ZZnYh2C9gaN8MMUS-130" target="ATo4ZZnYh2C9gaN8MMUS-135" edge="1">
          <mxGeometry x="-0.3181" relative="1" as="geometry">
            <mxPoint as="offset" />
          </mxGeometry>
        </mxCell>
        <mxCell id="ATo4ZZnYh2C9gaN8MMUS-137" style="edgeStyle=orthogonalEdgeStyle;rounded=0;orthogonalLoop=1;jettySize=auto;html=1;exitX=0.5;exitY=1;exitDx=0;exitDy=0;exitPerimeter=0;entryX=0.5;entryY=0;entryDx=0;entryDy=0;entryPerimeter=0;" parent="1" source="ATo4ZZnYh2C9gaN8MMUS-135" target="ATo4ZZnYh2C9gaN8MMUS-133" edge="1">
          <mxGeometry relative="1" as="geometry" />
        </mxCell>
        <mxCell id="ATo4ZZnYh2C9gaN8MMUS-138" value="Patch released" style="points=[[0.145,0.145,0],[0.5,0,0],[0.855,0.145,0],[1,0.5,0],[0.855,0.855,0],[0.5,1,0],[0.145,0.855,0],[0,0.5,0]];shape=mxgraph.bpmn.event;html=1;verticalLabelPosition=bottom;labelBackgroundColor=#ffffff;verticalAlign=top;align=center;perimeter=ellipsePerimeter;outlineConnect=0;aspect=fixed;outline=end;symbol=terminate2;" parent="1" vertex="1">
          <mxGeometry x="-428" y="941" width="34" height="34" as="geometry" />
        </mxCell>
        <mxCell id="ATo4ZZnYh2C9gaN8MMUS-139" style="edgeStyle=orthogonalEdgeStyle;rounded=0;orthogonalLoop=1;jettySize=auto;html=1;exitX=0.5;exitY=1;exitDx=0;exitDy=0;exitPerimeter=0;entryX=0.5;entryY=0;entryDx=0;entryDy=0;entryPerimeter=0;" parent="1" source="ATo4ZZnYh2C9gaN8MMUS-133" target="ATo4ZZnYh2C9gaN8MMUS-138" edge="1">
          <mxGeometry relative="1" as="geometry" />
        </mxCell>
        <mxCell id="ATo4ZZnYh2C9gaN8MMUS-140" value="Issue is reported" style="points=[[0.145,0.145,0],[0.5,0,0],[0.855,0.145,0],[1,0.5,0],[0.855,0.855,0],[0.5,1,0],[0.145,0.855,0],[0,0.5,0]];shape=mxgraph.bpmn.event;html=1;verticalLabelPosition=top;labelBackgroundColor=#ffffff;verticalAlign=bottom;align=center;perimeter=ellipsePerimeter;outlineConnect=0;aspect=fixed;outline=standard;symbol=general;labelPosition=center;" parent="1" vertex="1">
          <mxGeometry x="-436" y="110" width="50" height="50" as="geometry" />
        </mxCell>
        <mxCell id="ATo4ZZnYh2C9gaN8MMUS-141" style="edgeStyle=orthogonalEdgeStyle;rounded=0;orthogonalLoop=1;jettySize=auto;html=1;exitX=0.5;exitY=1;exitDx=0;exitDy=0;exitPerimeter=0;entryX=0.5;entryY=0;entryDx=0;entryDy=0;entryPerimeter=0;" parent="1" source="ATo4ZZnYh2C9gaN8MMUS-140" target="ATo4ZZnYh2C9gaN8MMUS-125" edge="1">
          <mxGeometry relative="1" as="geometry">
            <mxPoint x="-370" y="-10" as="targetPoint" />
          </mxGeometry>
        </mxCell>
        <mxCell id="ATo4ZZnYh2C9gaN8MMUS-185" value="Refinement" style="points=[[0.25,0,0],[0.5,0,0],[0.75,0,0],[1,0.25,0],[1,0.5,0],[1,0.75,0],[0.75,1,0],[0.5,1,0],[0.25,1,0],[0,0.75,0],[0,0.5,0],[0,0.25,0]];shape=mxgraph.bpmn.task;whiteSpace=wrap;rectStyle=rounded;size=10;html=1;container=1;expand=0;collapsible=0;taskMarker=user;" parent="1" vertex="1">
          <mxGeometry x="-325" y="510" width="90" height="60" as="geometry" />
        </mxCell>
        <mxCell id="ATo4ZZnYh2C9gaN8MMUS-186" style="edgeStyle=orthogonalEdgeStyle;rounded=0;orthogonalLoop=1;jettySize=auto;html=1;exitX=0;exitY=0.5;exitDx=0;exitDy=0;exitPerimeter=0;entryX=1;entryY=0.5;entryDx=0;entryDy=0;entryPerimeter=0;" parent="1" source="ATo4ZZnYh2C9gaN8MMUS-185" target="ATo4ZZnYh2C9gaN8MMUS-127" edge="1">
          <mxGeometry relative="1" as="geometry" />
        </mxCell>
        <mxCell id="ATo4ZZnYh2C9gaN8MMUS-190" value="yes" style="edgeStyle=orthogonalEdgeStyle;rounded=0;orthogonalLoop=1;jettySize=auto;html=1;exitX=0.5;exitY=1;exitDx=0;exitDy=0;exitPerimeter=0;entryX=0.5;entryY=0;entryDx=0;entryDy=0;entryPerimeter=0;" parent="1" source="ATo4ZZnYh2C9gaN8MMUS-187" target="ATo4ZZnYh2C9gaN8MMUS-396" edge="1">
          <mxGeometry x="-0.1172" relative="1" as="geometry">
            <mxPoint x="-411" y="310" as="targetPoint" />
            <mxPoint as="offset" />
          </mxGeometry>
        </mxCell>
        <mxCell id="ATo4ZZnYh2C9gaN8MMUS-192" value="" style="edgeStyle=orthogonalEdgeStyle;rounded=0;orthogonalLoop=1;jettySize=auto;html=1;" parent="1" source="ATo4ZZnYh2C9gaN8MMUS-187" target="ATo4ZZnYh2C9gaN8MMUS-188" edge="1">
          <mxGeometry relative="1" as="geometry" />
        </mxCell>
        <mxCell id="ATo4ZZnYh2C9gaN8MMUS-187" value="Valid and&lt;br&gt;reproduceable?" style="points=[[0.25,0.25,0],[0.5,0,0],[0.75,0.25,0],[1,0.5,0],[0.75,0.75,0],[0.5,1,0],[0.25,0.75,0],[0,0.5,0]];shape=mxgraph.bpmn.gateway2;html=1;verticalLabelPosition=middle;labelBackgroundColor=#ffffff;verticalAlign=middle;align=left;perimeter=rhombusPerimeter;outlineConnect=0;outline=none;symbol=none;gwType=exclusive;labelPosition=right;" parent="1" vertex="1">
          <mxGeometry x="-431" y="309.55999999999995" width="40" height="40" as="geometry" />
        </mxCell>
        <mxCell id="ATo4ZZnYh2C9gaN8MMUS-188" value="Closes issue" style="points=[[0.145,0.145,0],[0.5,0,0],[0.855,0.145,0],[1,0.5,0],[0.855,0.855,0],[0.5,1,0],[0.145,0.855,0],[0,0.5,0]];shape=mxgraph.bpmn.event;html=1;verticalLabelPosition=bottom;labelBackgroundColor=#ffffff;verticalAlign=top;align=center;perimeter=ellipsePerimeter;outlineConnect=0;aspect=fixed;outline=end;symbol=cancel;" parent="1" vertex="1">
          <mxGeometry x="-555" y="309.56" width="40" height="40" as="geometry" />
        </mxCell>
        <mxCell id="ATo4ZZnYh2C9gaN8MMUS-191" value="no" style="edgeStyle=orthogonalEdgeStyle;rounded=0;orthogonalLoop=1;jettySize=auto;html=1;exitX=0;exitY=0.5;exitDx=0;exitDy=0;exitPerimeter=0;entryX=1;entryY=0.5;entryDx=0;entryDy=0;entryPerimeter=0;" parent="1" source="ATo4ZZnYh2C9gaN8MMUS-187" target="ATo4ZZnYh2C9gaN8MMUS-188" edge="1">
          <mxGeometry relative="1" as="geometry" />
        </mxCell>
        <mxCell id="ATo4ZZnYh2C9gaN8MMUS-303" value="Backport Analysis" style="swimlane;childLayout=stackLayout;resizeParent=1;resizeParentMax=0;horizontal=0;startSize=20;horizontalStack=0;html=1;strokeWidth=2;fillColor=#f5f5f5;fontColor=#333333;strokeColor=#666666;" parent="1" vertex="1">
          <mxGeometry x="-140" y="2630" width="910" height="320" as="geometry" />
        </mxCell>
        <mxCell id="ATo4ZZnYh2C9gaN8MMUS-304" value="Engineer" style="swimlane;startSize=20;horizontal=0;html=1;fillColor=#e1d5e7;strokeColor=#9673a6;" parent="ATo4ZZnYh2C9gaN8MMUS-303" vertex="1">
          <mxGeometry x="20" width="890" height="190" as="geometry" />
        </mxCell>
        <mxCell id="ATo4ZZnYh2C9gaN8MMUS-194" value="Start" style="points=[[0.145,0.145,0],[0.5,0,0],[0.855,0.145,0],[1,0.5,0],[0.855,0.855,0],[0.5,1,0],[0.145,0.855,0],[0,0.5,0]];shape=mxgraph.bpmn.event;html=1;verticalLabelPosition=bottom;labelBackgroundColor=#ffffff;verticalAlign=top;align=center;perimeter=ellipsePerimeter;outlineConnect=0;aspect=fixed;outline=standard;symbol=general;" parent="ATo4ZZnYh2C9gaN8MMUS-304" vertex="1">
          <mxGeometry x="35" y="69.94999999999986" width="40" height="40" as="geometry" />
        </mxCell>
        <mxCell id="ATo4ZZnYh2C9gaN8MMUS-195" value="requires&lt;br&gt;backports" style="points=[[0.25,0.25,0],[0.5,0,0],[0.75,0.25,0],[1,0.5,0],[0.75,0.75,0],[0.5,1,0],[0.25,0.75,0],[0,0.5,0]];shape=mxgraph.bpmn.gateway2;html=1;verticalLabelPosition=bottom;labelBackgroundColor=#ffffff;verticalAlign=top;align=center;perimeter=rhombusPerimeter;outlineConnect=0;outline=none;symbol=none;gwType=exclusive;" parent="ATo4ZZnYh2C9gaN8MMUS-304" vertex="1">
          <mxGeometry x="275" y="69.94999999999986" width="40" height="40" as="geometry" />
        </mxCell>
        <mxCell id="ATo4ZZnYh2C9gaN8MMUS-196" value="Creates&amp;nbsp;list of backports for the modules" style="points=[[0.25,0,0],[0.5,0,0],[0.75,0,0],[1,0.25,0],[1,0.5,0],[1,0.75,0],[0.75,1,0],[0.5,1,0],[0.25,1,0],[0,0.75,0],[0,0.5,0],[0,0.25,0]];shape=mxgraph.bpmn.task;whiteSpace=wrap;rectStyle=rounded;size=10;html=1;container=1;expand=0;collapsible=0;taskMarker=user;fillColor=#f5f5f5;strokeColor=#666666;fontColor=#333333;" parent="ATo4ZZnYh2C9gaN8MMUS-304" vertex="1">
          <mxGeometry x="395" y="52.3070588235294" width="120" height="75.29411764705883" as="geometry" />
        </mxCell>
        <mxCell id="ATo4ZZnYh2C9gaN8MMUS-197" value="yes" style="edgeStyle=orthogonalEdgeStyle;rounded=0;orthogonalLoop=1;jettySize=auto;html=1;exitX=1;exitY=0.5;exitDx=0;exitDy=0;exitPerimeter=0;entryX=0;entryY=0.5;entryDx=0;entryDy=0;entryPerimeter=0;" parent="ATo4ZZnYh2C9gaN8MMUS-304" source="ATo4ZZnYh2C9gaN8MMUS-195" target="ATo4ZZnYh2C9gaN8MMUS-196" edge="1">
          <mxGeometry relative="1" as="geometry">
            <mxPoint as="offset" />
          </mxGeometry>
        </mxCell>
        <mxCell id="ATo4ZZnYh2C9gaN8MMUS-202" style="edgeStyle=orthogonalEdgeStyle;rounded=0;orthogonalLoop=1;jettySize=auto;html=1;exitX=1;exitY=0.5;exitDx=0;exitDy=0;exitPerimeter=0;" parent="ATo4ZZnYh2C9gaN8MMUS-304" source="ATo4ZZnYh2C9gaN8MMUS-203" target="ATo4ZZnYh2C9gaN8MMUS-195" edge="1">
          <mxGeometry relative="1" as="geometry" />
        </mxCell>
        <mxCell id="ATo4ZZnYh2C9gaN8MMUS-203" value="Analysis if any&lt;br&gt;backports must be&lt;br&gt;done" style="points=[[0.25,0,0],[0.5,0,0],[0.75,0,0],[1,0.25,0],[1,0.5,0],[1,0.75,0],[0.75,1,0],[0.5,1,0],[0.25,1,0],[0,0.75,0],[0,0.5,0],[0,0.25,0]];shape=mxgraph.bpmn.task;whiteSpace=wrap;rectStyle=rounded;size=10;html=1;container=1;expand=0;collapsible=0;taskMarker=user;fillColor=#f5f5f5;strokeColor=#666666;fontColor=#333333;" parent="ATo4ZZnYh2C9gaN8MMUS-304" vertex="1">
          <mxGeometry x="115" y="52.3070588235294" width="120" height="75.29411764705883" as="geometry" />
        </mxCell>
        <mxCell id="ATo4ZZnYh2C9gaN8MMUS-193" style="edgeStyle=orthogonalEdgeStyle;rounded=0;orthogonalLoop=1;jettySize=auto;html=1;entryX=0;entryY=0.5;entryDx=0;entryDy=0;entryPerimeter=0;" parent="ATo4ZZnYh2C9gaN8MMUS-304" source="ATo4ZZnYh2C9gaN8MMUS-194" target="ATo4ZZnYh2C9gaN8MMUS-203" edge="1">
          <mxGeometry relative="1" as="geometry" />
        </mxCell>
        <mxCell id="ATo4ZZnYh2C9gaN8MMUS-206" value="Done" style="points=[[0.145,0.145,0],[0.5,0,0],[0.855,0.145,0],[1,0.5,0],[0.855,0.855,0],[0.5,1,0],[0.145,0.855,0],[0,0.5,0]];shape=mxgraph.bpmn.event;html=1;verticalLabelPosition=middle;labelBackgroundColor=#ffffff;verticalAlign=middle;align=left;perimeter=ellipsePerimeter;outlineConnect=0;aspect=fixed;outline=end;symbol=terminate2;labelPosition=right;" parent="ATo4ZZnYh2C9gaN8MMUS-304" vertex="1">
          <mxGeometry x="800" y="67.98999999999987" width="40" height="40" as="geometry" />
        </mxCell>
        <mxCell id="ATo4ZZnYh2C9gaN8MMUS-214" value="no" style="edgeStyle=orthogonalEdgeStyle;rounded=0;orthogonalLoop=1;jettySize=auto;html=1;exitX=0.5;exitY=0;exitDx=0;exitDy=0;exitPerimeter=0;entryX=0.5;entryY=0;entryDx=0;entryDy=0;entryPerimeter=0;" parent="ATo4ZZnYh2C9gaN8MMUS-304" source="ATo4ZZnYh2C9gaN8MMUS-195" target="ATo4ZZnYh2C9gaN8MMUS-206" edge="1">
          <mxGeometry x="-0.9348" relative="1" as="geometry">
            <Array as="points">
              <mxPoint x="295" y="18" />
              <mxPoint x="820" y="18" />
            </Array>
            <mxPoint as="offset" />
          </mxGeometry>
        </mxCell>
        <mxCell id="ATo4ZZnYh2C9gaN8MMUS-308" value="Refinement" style="points=[[0.25,0,0],[0.5,0,0],[0.75,0,0],[1,0.25,0],[1,0.5,0],[1,0.75,0],[0.75,1,0],[0.5,1,0],[0.25,1,0],[0,0.75,0],[0,0.5,0],[0,0.25,0]];shape=mxgraph.bpmn.task;whiteSpace=wrap;rectStyle=rounded;size=10;html=1;container=1;expand=0;collapsible=0;taskMarker=user;fillColor=#f5f5f5;strokeColor=#666666;fontColor=#333333;" parent="ATo4ZZnYh2C9gaN8MMUS-304" vertex="1">
          <mxGeometry x="600" y="53.48999999999977" width="120" height="69" as="geometry" />
        </mxCell>
        <mxCell id="ATo4ZZnYh2C9gaN8MMUS-305" value="Tech Lead" style="swimlane;startSize=20;horizontal=0;html=1;fillColor=#e1d5e7;strokeColor=#9673a6;" parent="ATo4ZZnYh2C9gaN8MMUS-303" vertex="1">
          <mxGeometry x="20" y="190" width="890" height="130" as="geometry" />
        </mxCell>
        <mxCell id="ATo4ZZnYh2C9gaN8MMUS-212" value="Reviews and&lt;br&gt;approves backports" style="points=[[0.25,0,0],[0.5,0,0],[0.75,0,0],[1,0.25,0],[1,0.5,0],[1,0.75,0],[0.75,1,0],[0.5,1,0],[0.25,1,0],[0,0.75,0],[0,0.5,0],[0,0.25,0]];shape=mxgraph.bpmn.task;whiteSpace=wrap;rectStyle=rounded;size=10;html=1;container=1;expand=0;collapsible=0;taskMarker=user;fillColor=#f5f5f5;strokeColor=#666666;fontColor=#333333;" parent="ATo4ZZnYh2C9gaN8MMUS-305" vertex="1">
          <mxGeometry x="470" y="29.99999999999984" width="120" height="69" as="geometry" />
        </mxCell>
        <mxCell id="ATo4ZZnYh2C9gaN8MMUS-283" value="Was&lt;br&gt;Approved?" style="points=[[0.25,0.25,0],[0.5,0,0],[0.75,0.25,0],[1,0.5,0],[0.75,0.75,0],[0.5,1,0],[0.25,0.75,0],[0,0.5,0]];shape=mxgraph.bpmn.gateway2;html=1;verticalLabelPosition=bottom;labelBackgroundColor=#ffffff;verticalAlign=top;align=center;perimeter=rhombusPerimeter;outlineConnect=0;outline=none;symbol=none;gwType=exclusive;labelPosition=center;" parent="ATo4ZZnYh2C9gaN8MMUS-305" vertex="1">
          <mxGeometry x="670" y="44.50000000000007" width="40" height="40" as="geometry" />
        </mxCell>
        <mxCell id="ATo4ZZnYh2C9gaN8MMUS-284" style="edgeStyle=orthogonalEdgeStyle;rounded=0;orthogonalLoop=1;jettySize=auto;html=1;exitX=1;exitY=0.5;exitDx=0;exitDy=0;exitPerimeter=0;" parent="ATo4ZZnYh2C9gaN8MMUS-305" source="ATo4ZZnYh2C9gaN8MMUS-212" target="ATo4ZZnYh2C9gaN8MMUS-283" edge="1">
          <mxGeometry relative="1" as="geometry" />
        </mxCell>
        <mxCell id="ATo4ZZnYh2C9gaN8MMUS-201" style="edgeStyle=orthogonalEdgeStyle;rounded=0;orthogonalLoop=1;jettySize=auto;html=1;exitX=0.5;exitY=1;exitDx=0;exitDy=0;exitPerimeter=0;entryX=0.25;entryY=0;entryDx=0;entryDy=0;entryPerimeter=0;" parent="ATo4ZZnYh2C9gaN8MMUS-303" source="ATo4ZZnYh2C9gaN8MMUS-196" target="ATo4ZZnYh2C9gaN8MMUS-212" edge="1">
          <mxGeometry relative="1" as="geometry">
            <mxPoint x="575.0041176470586" y="59.90411764705891" as="targetPoint" />
          </mxGeometry>
        </mxCell>
        <mxCell id="ATo4ZZnYh2C9gaN8MMUS-286" value="yes" style="edgeStyle=orthogonalEdgeStyle;rounded=0;orthogonalLoop=1;jettySize=auto;html=1;exitX=1;exitY=0.5;exitDx=0;exitDy=0;exitPerimeter=0;" parent="ATo4ZZnYh2C9gaN8MMUS-303" source="ATo4ZZnYh2C9gaN8MMUS-283" target="ATo4ZZnYh2C9gaN8MMUS-206" edge="1">
          <mxGeometry x="-0.6881" relative="1" as="geometry">
            <mxPoint as="offset" />
          </mxGeometry>
        </mxCell>
        <mxCell id="ATo4ZZnYh2C9gaN8MMUS-309" value="no" style="edgeStyle=orthogonalEdgeStyle;rounded=0;orthogonalLoop=1;jettySize=auto;html=1;exitX=0.5;exitY=0;exitDx=0;exitDy=0;exitPerimeter=0;entryX=0.75;entryY=1;entryDx=0;entryDy=0;entryPerimeter=0;" parent="ATo4ZZnYh2C9gaN8MMUS-303" source="ATo4ZZnYh2C9gaN8MMUS-283" target="ATo4ZZnYh2C9gaN8MMUS-308" edge="1">
          <mxGeometry x="-0.5625" relative="1" as="geometry">
            <mxPoint as="offset" />
          </mxGeometry>
        </mxCell>
        <mxCell id="ATo4ZZnYh2C9gaN8MMUS-310" style="edgeStyle=orthogonalEdgeStyle;rounded=0;orthogonalLoop=1;jettySize=auto;html=1;exitX=0.25;exitY=1;exitDx=0;exitDy=0;exitPerimeter=0;" parent="ATo4ZZnYh2C9gaN8MMUS-303" source="ATo4ZZnYh2C9gaN8MMUS-308" edge="1">
          <mxGeometry relative="1" as="geometry">
            <mxPoint x="580" y="220" as="targetPoint" />
          </mxGeometry>
        </mxCell>
        <mxCell id="ATo4ZZnYh2C9gaN8MMUS-311" value="Document Review" style="swimlane;childLayout=stackLayout;resizeParent=1;resizeParentMax=0;horizontal=0;startSize=20;horizontalStack=0;html=1;strokeWidth=2;fillColor=#f5f5f5;fontColor=#333333;strokeColor=#666666;" parent="1" vertex="1">
          <mxGeometry x="-140" y="2990" width="910" height="270" as="geometry" />
        </mxCell>
        <mxCell id="ATo4ZZnYh2C9gaN8MMUS-312" value="Engineer" style="swimlane;startSize=20;horizontal=0;html=1;fillColor=#e1d5e7;strokeColor=#9673a6;" parent="ATo4ZZnYh2C9gaN8MMUS-311" vertex="1">
          <mxGeometry x="20" width="890" height="140" as="geometry" />
        </mxCell>
        <mxCell id="ATo4ZZnYh2C9gaN8MMUS-288" value="Start" style="points=[[0.145,0.145,0],[0.5,0,0],[0.855,0.145,0],[1,0.5,0],[0.855,0.855,0],[0.5,1,0],[0.145,0.855,0],[0,0.5,0]];shape=mxgraph.bpmn.event;html=1;verticalLabelPosition=bottom;labelBackgroundColor=#ffffff;verticalAlign=top;align=center;perimeter=ellipsePerimeter;outlineConnect=0;aspect=fixed;outline=standard;symbol=general;" parent="ATo4ZZnYh2C9gaN8MMUS-312" vertex="1">
          <mxGeometry x="50" y="47.63999999999987" width="40" height="40" as="geometry" />
        </mxCell>
        <mxCell id="ATo4ZZnYh2C9gaN8MMUS-294" value="Documents the&lt;br&gt;cause and steps to&amp;nbsp;&lt;br&gt;apply the patches" style="points=[[0.25,0,0],[0.5,0,0],[0.75,0,0],[1,0.25,0],[1,0.5,0],[1,0.75,0],[0.75,1,0],[0.5,1,0],[0.25,1,0],[0,0.75,0],[0,0.5,0],[0,0.25,0]];shape=mxgraph.bpmn.task;whiteSpace=wrap;rectStyle=rounded;size=10;html=1;container=1;expand=0;collapsible=0;taskMarker=user;fillColor=#f5f5f5;strokeColor=#666666;fontColor=#333333;" parent="ATo4ZZnYh2C9gaN8MMUS-312" vertex="1">
          <mxGeometry x="130.79" y="33.14" width="120" height="70" as="geometry" />
        </mxCell>
        <mxCell id="ATo4ZZnYh2C9gaN8MMUS-287" style="edgeStyle=orthogonalEdgeStyle;rounded=0;orthogonalLoop=1;jettySize=auto;html=1;entryX=0;entryY=0.5;entryDx=0;entryDy=0;entryPerimeter=0;" parent="ATo4ZZnYh2C9gaN8MMUS-312" source="ATo4ZZnYh2C9gaN8MMUS-288" target="ATo4ZZnYh2C9gaN8MMUS-294" edge="1">
          <mxGeometry relative="1" as="geometry" />
        </mxCell>
        <mxCell id="ATo4ZZnYh2C9gaN8MMUS-331" value="Refinement" style="points=[[0.25,0,0],[0.5,0,0],[0.75,0,0],[1,0.25,0],[1,0.5,0],[1,0.75,0],[0.75,1,0],[0.5,1,0],[0.25,1,0],[0,0.75,0],[0,0.5,0],[0,0.25,0]];shape=mxgraph.bpmn.task;whiteSpace=wrap;rectStyle=rounded;size=10;html=1;container=1;expand=0;collapsible=0;taskMarker=user;fillColor=#f5f5f5;strokeColor=#666666;fontColor=#333333;" parent="ATo4ZZnYh2C9gaN8MMUS-312" vertex="1">
          <mxGeometry x="310" y="33.13999999999974" width="120" height="69" as="geometry" />
        </mxCell>
        <mxCell id="ATo4ZZnYh2C9gaN8MMUS-323" value="Tech Writer" style="swimlane;startSize=20;horizontal=0;html=1;fillColor=#e1d5e7;strokeColor=#9673a6;" parent="ATo4ZZnYh2C9gaN8MMUS-311" vertex="1">
          <mxGeometry x="20" y="140" width="890" height="130" as="geometry" />
        </mxCell>
        <mxCell id="ATo4ZZnYh2C9gaN8MMUS-297" value="Tech Writer&lt;br&gt;Reviews documents" style="points=[[0.25,0,0],[0.5,0,0],[0.75,0,0],[1,0.25,0],[1,0.5,0],[1,0.75,0],[0.75,1,0],[0.5,1,0],[0.25,1,0],[0,0.75,0],[0,0.5,0],[0,0.25,0]];shape=mxgraph.bpmn.task;whiteSpace=wrap;rectStyle=rounded;size=10;html=1;container=1;expand=0;collapsible=0;taskMarker=user;fillColor=#f5f5f5;strokeColor=#666666;fontColor=#333333;" parent="ATo4ZZnYh2C9gaN8MMUS-323" vertex="1">
          <mxGeometry x="130.79" y="30.499999999999886" width="120" height="69" as="geometry" />
        </mxCell>
        <mxCell id="ATo4ZZnYh2C9gaN8MMUS-299" value="Was&lt;br&gt;Approved?" style="points=[[0.25,0.25,0],[0.5,0,0],[0.75,0.25,0],[1,0.5,0],[0.75,0.75,0],[0.5,1,0],[0.25,0.75,0],[0,0.5,0]];shape=mxgraph.bpmn.gateway2;html=1;verticalLabelPosition=bottom;labelBackgroundColor=#ffffff;verticalAlign=top;align=center;perimeter=rhombusPerimeter;outlineConnect=0;outline=none;symbol=none;gwType=exclusive;labelPosition=center;" parent="ATo4ZZnYh2C9gaN8MMUS-323" vertex="1">
          <mxGeometry x="350" y="45.000000000000114" width="40" height="40" as="geometry" />
        </mxCell>
        <mxCell id="ATo4ZZnYh2C9gaN8MMUS-296" style="edgeStyle=orthogonalEdgeStyle;rounded=0;orthogonalLoop=1;jettySize=auto;html=1;exitX=1;exitY=0.5;exitDx=0;exitDy=0;exitPerimeter=0;" parent="ATo4ZZnYh2C9gaN8MMUS-323" source="ATo4ZZnYh2C9gaN8MMUS-297" target="ATo4ZZnYh2C9gaN8MMUS-299" edge="1">
          <mxGeometry relative="1" as="geometry" />
        </mxCell>
        <mxCell id="ATo4ZZnYh2C9gaN8MMUS-295" value="Done" style="points=[[0.145,0.145,0],[0.5,0,0],[0.855,0.145,0],[1,0.5,0],[0.855,0.855,0],[0.5,1,0],[0.145,0.855,0],[0,0.5,0]];shape=mxgraph.bpmn.event;html=1;verticalLabelPosition=bottom;labelBackgroundColor=#ffffff;verticalAlign=top;align=center;perimeter=ellipsePerimeter;outlineConnect=0;aspect=fixed;outline=end;symbol=terminate2;" parent="ATo4ZZnYh2C9gaN8MMUS-323" vertex="1">
          <mxGeometry x="480" y="44.999999999999886" width="40" height="40" as="geometry" />
        </mxCell>
        <mxCell id="ATo4ZZnYh2C9gaN8MMUS-301" value="yes" style="edgeStyle=orthogonalEdgeStyle;rounded=0;orthogonalLoop=1;jettySize=auto;html=1;exitX=1;exitY=0.5;exitDx=0;exitDy=0;exitPerimeter=0;entryX=0;entryY=0.5;entryDx=0;entryDy=0;entryPerimeter=0;" parent="ATo4ZZnYh2C9gaN8MMUS-323" source="ATo4ZZnYh2C9gaN8MMUS-299" target="ATo4ZZnYh2C9gaN8MMUS-295" edge="1">
          <mxGeometry relative="1" as="geometry" />
        </mxCell>
        <mxCell id="ATo4ZZnYh2C9gaN8MMUS-293" style="edgeStyle=orthogonalEdgeStyle;rounded=0;orthogonalLoop=1;jettySize=auto;html=1;exitX=0.5;exitY=1;exitDx=0;exitDy=0;exitPerimeter=0;" parent="ATo4ZZnYh2C9gaN8MMUS-311" source="ATo4ZZnYh2C9gaN8MMUS-294" target="ATo4ZZnYh2C9gaN8MMUS-297" edge="1">
          <mxGeometry relative="1" as="geometry">
            <mxPoint x="310.0041176470595" y="67.64411764705892" as="targetPoint" />
          </mxGeometry>
        </mxCell>
        <mxCell id="ATo4ZZnYh2C9gaN8MMUS-332" style="edgeStyle=orthogonalEdgeStyle;rounded=0;orthogonalLoop=1;jettySize=auto;html=1;exitX=0.25;exitY=1;exitDx=0;exitDy=0;exitPerimeter=0;entryX=0.75;entryY=0;entryDx=0;entryDy=0;entryPerimeter=0;" parent="ATo4ZZnYh2C9gaN8MMUS-311" source="ATo4ZZnYh2C9gaN8MMUS-331" target="ATo4ZZnYh2C9gaN8MMUS-297" edge="1">
          <mxGeometry relative="1" as="geometry">
            <Array as="points">
              <mxPoint x="360" y="120" />
              <mxPoint x="241" y="120" />
            </Array>
          </mxGeometry>
        </mxCell>
        <mxCell id="ATo4ZZnYh2C9gaN8MMUS-339" style="edgeStyle=orthogonalEdgeStyle;rounded=0;orthogonalLoop=1;jettySize=auto;html=1;exitX=0.5;exitY=0;exitDx=0;exitDy=0;exitPerimeter=0;" parent="ATo4ZZnYh2C9gaN8MMUS-311" source="ATo4ZZnYh2C9gaN8MMUS-299" target="ATo4ZZnYh2C9gaN8MMUS-331" edge="1">
          <mxGeometry relative="1" as="geometry" />
        </mxCell>
        <mxCell id="ATo4ZZnYh2C9gaN8MMUS-340" value="Reproduction of Issue" style="swimlane;childLayout=stackLayout;resizeParent=1;resizeParentMax=0;horizontal=0;startSize=20;horizontalStack=0;html=1;strokeWidth=2;fillColor=#f5f5f5;fontColor=#333333;strokeColor=#666666;" parent="1" vertex="1">
          <mxGeometry x="-140" y="2080" width="910" height="510" as="geometry" />
        </mxCell>
        <mxCell id="ATo4ZZnYh2C9gaN8MMUS-360" value="Engineer 1" style="swimlane;startSize=20;horizontal=0;html=1;fillColor=#e1d5e7;strokeColor=#9673a6;" parent="ATo4ZZnYh2C9gaN8MMUS-340" vertex="1">
          <mxGeometry x="20" width="890" height="130" as="geometry" />
        </mxCell>
        <mxCell id="ATo4ZZnYh2C9gaN8MMUS-364" style="edgeStyle=orthogonalEdgeStyle;rounded=0;orthogonalLoop=1;jettySize=auto;html=1;exitX=1;exitY=0.5;exitDx=0;exitDy=0;exitPerimeter=0;" parent="ATo4ZZnYh2C9gaN8MMUS-360" source="ATo4ZZnYh2C9gaN8MMUS-362" target="ATo4ZZnYh2C9gaN8MMUS-363" edge="1">
          <mxGeometry relative="1" as="geometry" />
        </mxCell>
        <mxCell id="ATo4ZZnYh2C9gaN8MMUS-362" value="Start" style="points=[[0.145,0.145,0],[0.5,0,0],[0.855,0.145,0],[1,0.5,0],[0.855,0.855,0],[0.5,1,0],[0.145,0.855,0],[0,0.5,0]];shape=mxgraph.bpmn.event;html=1;verticalLabelPosition=bottom;labelBackgroundColor=#ffffff;verticalAlign=top;align=center;perimeter=ellipsePerimeter;outlineConnect=0;aspect=fixed;outline=standard;symbol=general;" parent="ATo4ZZnYh2C9gaN8MMUS-360" vertex="1">
          <mxGeometry x="40" y="43.789999999999964" width="40" height="40" as="geometry" />
        </mxCell>
        <mxCell id="ATo4ZZnYh2C9gaN8MMUS-363" value="Tries to reproduce the issue" style="points=[[0.25,0,0],[0.5,0,0],[0.75,0,0],[1,0.25,0],[1,0.5,0],[1,0.75,0],[0.75,1,0],[0.5,1,0],[0.25,1,0],[0,0.75,0],[0,0.5,0],[0,0.25,0]];shape=mxgraph.bpmn.task;whiteSpace=wrap;rectStyle=rounded;size=10;html=1;container=1;expand=0;collapsible=0;taskMarker=user;fillColor=#f5f5f5;strokeColor=#666666;fontColor=#333333;" parent="ATo4ZZnYh2C9gaN8MMUS-360" vertex="1">
          <mxGeometry x="120" y="26.14705882352939" width="120" height="75.29411764705883" as="geometry" />
        </mxCell>
        <mxCell id="ATo4ZZnYh2C9gaN8MMUS-365" value="reproduceable?" style="points=[[0.25,0.25,0],[0.5,0,0],[0.75,0.25,0],[1,0.5,0],[0.75,0.75,0],[0.5,1,0],[0.25,0.75,0],[0,0.5,0]];shape=mxgraph.bpmn.gateway2;html=1;verticalLabelPosition=top;labelBackgroundColor=#ffffff;verticalAlign=bottom;align=center;perimeter=rhombusPerimeter;outlineConnect=0;outline=none;symbol=none;gwType=exclusive;labelPosition=center;" parent="ATo4ZZnYh2C9gaN8MMUS-360" vertex="1">
          <mxGeometry x="290" y="43.789999999999964" width="40" height="40" as="geometry" />
        </mxCell>
        <mxCell id="ATo4ZZnYh2C9gaN8MMUS-366" style="edgeStyle=orthogonalEdgeStyle;rounded=0;orthogonalLoop=1;jettySize=auto;html=1;exitX=1;exitY=0.5;exitDx=0;exitDy=0;exitPerimeter=0;entryX=0;entryY=0.5;entryDx=0;entryDy=0;entryPerimeter=0;" parent="ATo4ZZnYh2C9gaN8MMUS-360" source="ATo4ZZnYh2C9gaN8MMUS-363" target="ATo4ZZnYh2C9gaN8MMUS-365" edge="1">
          <mxGeometry relative="1" as="geometry" />
        </mxCell>
        <mxCell id="ATo4ZZnYh2C9gaN8MMUS-369" value="Done" style="points=[[0.145,0.145,0],[0.5,0,0],[0.855,0.145,0],[1,0.5,0],[0.855,0.855,0],[0.5,1,0],[0.145,0.855,0],[0,0.5,0]];shape=mxgraph.bpmn.event;html=1;verticalLabelPosition=top;labelBackgroundColor=#ffffff;verticalAlign=bottom;align=center;perimeter=ellipsePerimeter;outlineConnect=0;aspect=fixed;outline=end;symbol=terminate2;labelPosition=center;" parent="ATo4ZZnYh2C9gaN8MMUS-360" vertex="1">
          <mxGeometry x="780" y="43.78999999999994" width="40" height="40" as="geometry" />
        </mxCell>
        <mxCell id="ATo4ZZnYh2C9gaN8MMUS-370" value="yes" style="edgeStyle=orthogonalEdgeStyle;rounded=0;orthogonalLoop=1;jettySize=auto;html=1;exitX=1;exitY=0.5;exitDx=0;exitDy=0;exitPerimeter=0;entryX=0;entryY=0.5;entryDx=0;entryDy=0;entryPerimeter=0;" parent="ATo4ZZnYh2C9gaN8MMUS-360" source="ATo4ZZnYh2C9gaN8MMUS-365" target="ATo4ZZnYh2C9gaN8MMUS-369" edge="1">
          <mxGeometry x="-0.8222" y="3" relative="1" as="geometry">
            <mxPoint as="offset" />
          </mxGeometry>
        </mxCell>
        <mxCell id="ATo4ZZnYh2C9gaN8MMUS-361" value="Engineer 2" style="swimlane;startSize=20;horizontal=0;html=1;fillColor=#e1d5e7;strokeColor=#9673a6;" parent="ATo4ZZnYh2C9gaN8MMUS-340" vertex="1">
          <mxGeometry x="20" y="130" width="890" height="200" as="geometry" />
        </mxCell>
        <mxCell id="ATo4ZZnYh2C9gaN8MMUS-372" style="edgeStyle=orthogonalEdgeStyle;rounded=0;orthogonalLoop=1;jettySize=auto;html=1;exitX=1;exitY=0.5;exitDx=0;exitDy=0;exitPerimeter=0;" parent="ATo4ZZnYh2C9gaN8MMUS-361" source="ATo4ZZnYh2C9gaN8MMUS-367" target="ATo4ZZnYh2C9gaN8MMUS-371" edge="1">
          <mxGeometry relative="1" as="geometry" />
        </mxCell>
        <mxCell id="ATo4ZZnYh2C9gaN8MMUS-367" value="Second Engineer&lt;br&gt;tries to reproduce" style="points=[[0.25,0,0],[0.5,0,0],[0.75,0,0],[1,0.25,0],[1,0.5,0],[1,0.75,0],[0.75,1,0],[0.5,1,0],[0.25,1,0],[0,0.75,0],[0,0.5,0],[0,0.25,0]];shape=mxgraph.bpmn.task;whiteSpace=wrap;rectStyle=rounded;size=10;html=1;container=1;expand=0;collapsible=0;taskMarker=user;fillColor=#f5f5f5;strokeColor=#666666;fontColor=#333333;" parent="ATo4ZZnYh2C9gaN8MMUS-361" vertex="1">
          <mxGeometry x="250" y="31.437058823529412" width="120" height="75.29411764705883" as="geometry" />
        </mxCell>
        <mxCell id="ATo4ZZnYh2C9gaN8MMUS-371" value="reproduceable?" style="points=[[0.25,0.25,0],[0.5,0,0],[0.75,0.25,0],[1,0.5,0],[0.75,0.75,0],[0.5,1,0],[0.25,0.75,0],[0,0.5,0]];shape=mxgraph.bpmn.gateway2;html=1;verticalLabelPosition=top;labelBackgroundColor=#ffffff;verticalAlign=bottom;align=center;perimeter=rhombusPerimeter;outlineConnect=0;outline=none;symbol=none;gwType=exclusive;labelPosition=center;" parent="ATo4ZZnYh2C9gaN8MMUS-361" vertex="1">
          <mxGeometry x="425" y="49.079999999999984" width="40" height="40" as="geometry" />
        </mxCell>
        <mxCell id="ATo4ZZnYh2C9gaN8MMUS-379" value="Align with Security" style="points=[[0.145,0.145,0],[0.5,0,0],[0.855,0.145,0],[1,0.5,0],[0.855,0.855,0],[0.5,1,0],[0.145,0.855,0],[0,0.5,0]];shape=mxgraph.bpmn.event;html=1;verticalLabelPosition=bottom;labelBackgroundColor=#ffffff;verticalAlign=top;align=center;perimeter=ellipsePerimeter;outlineConnect=0;aspect=fixed;outline=standard;symbol=message;" parent="ATo4ZZnYh2C9gaN8MMUS-361" vertex="1">
          <mxGeometry x="432.23" y="128.7783333333333" width="25.53" height="25.53" as="geometry" />
        </mxCell>
        <mxCell id="ATo4ZZnYh2C9gaN8MMUS-375" value="no" style="edgeStyle=orthogonalEdgeStyle;rounded=0;orthogonalLoop=1;jettySize=auto;html=1;exitX=0.5;exitY=1;exitDx=0;exitDy=0;exitPerimeter=0;entryX=0.5;entryY=0;entryDx=0;entryDy=0;entryPerimeter=0;" parent="ATo4ZZnYh2C9gaN8MMUS-361" source="ATo4ZZnYh2C9gaN8MMUS-371" target="ATo4ZZnYh2C9gaN8MMUS-379" edge="1">
          <mxGeometry x="-0.4499" relative="1" as="geometry">
            <mxPoint as="offset" />
          </mxGeometry>
        </mxCell>
        <mxCell id="ATo4ZZnYh2C9gaN8MMUS-352" value="Security Team" style="swimlane;startSize=20;horizontal=0;html=1;fillColor=#e1d5e7;strokeColor=#9673a6;" parent="ATo4ZZnYh2C9gaN8MMUS-340" vertex="1">
          <mxGeometry x="20" y="330" width="890" height="180" as="geometry" />
        </mxCell>
        <mxCell id="ATo4ZZnYh2C9gaN8MMUS-374" value="Security Team&lt;br&gt;Re-evaluates&lt;br&gt;the issue" style="points=[[0.25,0,0],[0.5,0,0],[0.75,0,0],[1,0.25,0],[1,0.5,0],[1,0.75,0],[0.75,1,0],[0.5,1,0],[0.25,1,0],[0,0.75,0],[0,0.5,0],[0,0.25,0]];shape=mxgraph.bpmn.task;whiteSpace=wrap;rectStyle=rounded;size=10;html=1;container=1;expand=0;collapsible=0;taskMarker=user;fillColor=#f5f5f5;strokeColor=#666666;fontColor=#333333;" parent="ATo4ZZnYh2C9gaN8MMUS-352" vertex="1">
          <mxGeometry x="385" y="33.85705882352943" width="120" height="75.29411764705883" as="geometry" />
        </mxCell>
        <mxCell id="ATo4ZZnYh2C9gaN8MMUS-376" value="Still a&lt;br&gt;valid issue?" style="points=[[0.25,0.25,0],[0.5,0,0],[0.75,0.25,0],[1,0.5,0],[0.75,0.75,0],[0.5,1,0],[0.25,0.75,0],[0,0.5,0]];shape=mxgraph.bpmn.gateway2;html=1;verticalLabelPosition=top;labelBackgroundColor=#ffffff;verticalAlign=bottom;align=center;perimeter=rhombusPerimeter;outlineConnect=0;outline=none;symbol=none;gwType=exclusive;labelPosition=center;" parent="ATo4ZZnYh2C9gaN8MMUS-352" vertex="1">
          <mxGeometry x="580" y="50.710000000000015" width="40" height="40" as="geometry" />
        </mxCell>
        <mxCell id="ATo4ZZnYh2C9gaN8MMUS-377" style="edgeStyle=orthogonalEdgeStyle;rounded=0;orthogonalLoop=1;jettySize=auto;html=1;exitX=1;exitY=0.5;exitDx=0;exitDy=0;exitPerimeter=0;entryX=0;entryY=0.5;entryDx=0;entryDy=0;entryPerimeter=0;" parent="ATo4ZZnYh2C9gaN8MMUS-352" source="ATo4ZZnYh2C9gaN8MMUS-374" target="ATo4ZZnYh2C9gaN8MMUS-376" edge="1">
          <mxGeometry relative="1" as="geometry" />
        </mxCell>
        <mxCell id="ATo4ZZnYh2C9gaN8MMUS-378" value="Resolve the issue" style="points=[[0.145,0.145,0],[0.5,0,0],[0.855,0.145,0],[1,0.5,0],[0.855,0.855,0],[0.5,1,0],[0.145,0.855,0],[0,0.5,0]];shape=mxgraph.bpmn.event;html=1;verticalLabelPosition=bottom;labelBackgroundColor=#ffffff;verticalAlign=top;align=center;perimeter=ellipsePerimeter;outlineConnect=0;aspect=fixed;outline=end;symbol=cancel;" parent="ATo4ZZnYh2C9gaN8MMUS-352" vertex="1">
          <mxGeometry x="780" y="52.30000000000007" width="38.41" height="38.41" as="geometry" />
        </mxCell>
        <mxCell id="ATo4ZZnYh2C9gaN8MMUS-383" style="edgeStyle=orthogonalEdgeStyle;rounded=0;orthogonalLoop=1;jettySize=auto;html=1;exitX=1;exitY=0.5;exitDx=0;exitDy=0;exitPerimeter=0;entryX=0;entryY=0.5;entryDx=0;entryDy=0;entryPerimeter=0;" parent="ATo4ZZnYh2C9gaN8MMUS-352" source="ATo4ZZnYh2C9gaN8MMUS-376" target="ATo4ZZnYh2C9gaN8MMUS-378" edge="1">
          <mxGeometry relative="1" as="geometry" />
        </mxCell>
        <mxCell id="ATo4ZZnYh2C9gaN8MMUS-368" value="no" style="edgeStyle=orthogonalEdgeStyle;rounded=0;orthogonalLoop=1;jettySize=auto;html=1;exitX=0.5;exitY=1;exitDx=0;exitDy=0;exitPerimeter=0;" parent="ATo4ZZnYh2C9gaN8MMUS-340" source="ATo4ZZnYh2C9gaN8MMUS-365" target="ATo4ZZnYh2C9gaN8MMUS-367" edge="1">
          <mxGeometry x="-0.3136" relative="1" as="geometry">
            <mxPoint as="offset" />
          </mxGeometry>
        </mxCell>
        <mxCell id="ATo4ZZnYh2C9gaN8MMUS-373" value="yes" style="edgeStyle=orthogonalEdgeStyle;rounded=0;orthogonalLoop=1;jettySize=auto;html=1;exitX=1;exitY=0.5;exitDx=0;exitDy=0;exitPerimeter=0;entryX=0.5;entryY=1;entryDx=0;entryDy=0;entryPerimeter=0;" parent="ATo4ZZnYh2C9gaN8MMUS-340" source="ATo4ZZnYh2C9gaN8MMUS-371" target="ATo4ZZnYh2C9gaN8MMUS-369" edge="1">
          <mxGeometry x="-0.8446" relative="1" as="geometry">
            <mxPoint as="offset" />
          </mxGeometry>
        </mxCell>
        <mxCell id="ATo4ZZnYh2C9gaN8MMUS-382" style="edgeStyle=orthogonalEdgeStyle;rounded=0;orthogonalLoop=1;jettySize=auto;html=1;exitX=0.5;exitY=1;exitDx=0;exitDy=0;exitPerimeter=0;" parent="ATo4ZZnYh2C9gaN8MMUS-340" source="ATo4ZZnYh2C9gaN8MMUS-379" target="ATo4ZZnYh2C9gaN8MMUS-374" edge="1">
          <mxGeometry relative="1" as="geometry" />
        </mxCell>
        <mxCell id="ATo4ZZnYh2C9gaN8MMUS-384" style="edgeStyle=orthogonalEdgeStyle;rounded=0;orthogonalLoop=1;jettySize=auto;html=1;exitX=0.5;exitY=1;exitDx=0;exitDy=0;exitPerimeter=0;" parent="ATo4ZZnYh2C9gaN8MMUS-340" source="ATo4ZZnYh2C9gaN8MMUS-376" target="ATo4ZZnYh2C9gaN8MMUS-367" edge="1">
          <mxGeometry relative="1" as="geometry">
            <Array as="points">
              <mxPoint x="620" y="480" />
              <mxPoint x="330" y="480" />
            </Array>
          </mxGeometry>
        </mxCell>
        <mxCell id="ATo4ZZnYh2C9gaN8MMUS-398" style="edgeStyle=orthogonalEdgeStyle;rounded=0;orthogonalLoop=1;jettySize=auto;html=1;exitX=0.5;exitY=1;exitDx=0;exitDy=0;exitPerimeter=0;" parent="1" source="ATo4ZZnYh2C9gaN8MMUS-396" target="ATo4ZZnYh2C9gaN8MMUS-127" edge="1">
          <mxGeometry relative="1" as="geometry" />
        </mxCell>
        <mxCell id="ATo4ZZnYh2C9gaN8MMUS-396" value="Report contains&lt;br&gt;patch?" style="points=[[0.25,0.25,0],[0.5,0,0],[0.75,0.25,0],[1,0.5,0],[0.75,0.75,0],[0.5,1,0],[0.25,0.75,0],[0,0.5,0]];shape=mxgraph.bpmn.gateway2;html=1;verticalLabelPosition=middle;labelBackgroundColor=#ffffff;verticalAlign=middle;align=left;perimeter=rhombusPerimeter;outlineConnect=0;outline=none;symbol=none;gwType=exclusive;labelPosition=right;" parent="1" vertex="1">
          <mxGeometry x="-431" y="419.99999999999994" width="40" height="40" as="geometry" />
        </mxCell>
        <mxCell id="ATo4ZZnYh2C9gaN8MMUS-399" value="Maintainer or&amp;nbsp;&lt;br style=&quot;border-color: var(--border-color);&quot;&gt;Contributor&lt;br style=&quot;border-color: var(--border-color);&quot;&gt;Prepares Fix" style="points=[[0.25,0,0],[0.5,0,0],[0.75,0,0],[1,0.25,0],[1,0.5,0],[1,0.75,0],[0.75,1,0],[0.5,1,0],[0.25,1,0],[0,0.75,0],[0,0.5,0],[0,0.25,0]];shape=mxgraph.bpmn.task;whiteSpace=wrap;rectStyle=rounded;size=10;html=1;container=1;expand=0;collapsible=0;taskMarker=user;" parent="1" vertex="1">
          <mxGeometry x="-580" y="409.19999999999993" width="90" height="61.59" as="geometry" />
        </mxCell>
        <mxCell id="ATo4ZZnYh2C9gaN8MMUS-400" value="no" style="edgeStyle=orthogonalEdgeStyle;rounded=0;orthogonalLoop=1;jettySize=auto;html=1;exitX=0;exitY=0.5;exitDx=0;exitDy=0;exitPerimeter=0;entryX=1;entryY=0.5;entryDx=0;entryDy=0;entryPerimeter=0;" parent="1" source="ATo4ZZnYh2C9gaN8MMUS-396" target="ATo4ZZnYh2C9gaN8MMUS-399" edge="1">
          <mxGeometry relative="1" as="geometry" />
        </mxCell>
        <mxCell id="ATo4ZZnYh2C9gaN8MMUS-401" style="edgeStyle=orthogonalEdgeStyle;rounded=0;orthogonalLoop=1;jettySize=auto;html=1;exitX=0.5;exitY=1;exitDx=0;exitDy=0;exitPerimeter=0;entryX=0;entryY=0.5;entryDx=0;entryDy=0;entryPerimeter=0;" parent="1" source="ATo4ZZnYh2C9gaN8MMUS-399" target="ATo4ZZnYh2C9gaN8MMUS-127" edge="1">
          <mxGeometry relative="1" as="geometry" />
        </mxCell>
        <mxCell id="ATo4ZZnYh2C9gaN8MMUS-402" value="Open Source Project&lt;br&gt;Issue Workflow (BPMN 2.0)" style="shape=umlFrame;whiteSpace=wrap;html=1;pointerEvents=0;recursiveResize=0;container=1;collapsible=0;width=200;height=39;fontStyle=1" parent="1" vertex="1">
          <mxGeometry x="-620" y="21" width="420" height="1019" as="geometry" />
        </mxCell>
      </root>
    </mxGraphModel>
  </diagram>
</mxfile>
